<svg width="352" height="228" viewBox="0 0 352 228" fill="none" xmlns="http://www.w3.org/2000/svg">
<mask id="mask0_3_2236" style="mask-type:luminance" maskUnits="userSpaceOnUse" x="-8" y="0" width="360" height="228">
<path d="M351.67 0H-8V227.87H351.67V0Z" fill="white"/>
</mask>
<g mask="url(#mask0_3_2236)">
<path d="M162.869 340.559C157.349 340.559 151.739 339.779 146.159 338.219C139.939 336.449 133.999 333.939 128.499 330.739L127.999 330.419L121.829 325.819C119.699 324.149 117.639 322.299 115.709 320.309C112.069 316.499 108.839 312.099 106.089 307.229C103.439 302.529 101.359 297.529 99.9191 292.379C99.5691 291.129 99.2491 289.829 98.9691 288.479C98.6891 289.819 98.3791 291.109 98.0191 292.349C96.5691 297.499 94.4891 302.499 91.8391 307.189C89.0691 312.099 85.8291 316.499 82.2191 320.259C80.2891 322.249 78.2291 324.109 76.1091 325.769L69.4291 330.699C63.9191 333.899 57.9791 336.409 51.7691 338.179C45.3391 339.979 38.7991 340.749 32.3191 340.469C29.0691 340.339 25.8091 339.989 22.6291 339.429C19.3691 338.879 16.0491 338.029 13.0391 336.989C10.1291 335.989 7.16913 334.719 4.00912 333.089C2.60912 332.359 1.18913 331.569 -0.230873 330.729C-1.61087 329.919 -3.16087 328.909 -4.46088 327.959C-6.80087 326.249 -9.10088 324.309 -11.9109 321.659C-13.1309 320.519 -14.3609 319.279 -15.3809 318.169C-16.5109 316.939 -17.5909 315.649 -18.6209 314.329C-22.6709 309.039 -25.8909 303.189 -28.2009 296.929C-29.3009 293.919 -30.2009 290.829 -30.9309 287.489C-31.6409 284.249 -32.1009 280.93 -32.3009 277.619C-32.5009 274.419 -32.4709 271.089 -32.2209 267.749C-32.1209 266.46 -31.9809 265.109 -31.8009 263.709C-33.1109 263.159 -34.3309 262.609 -35.4909 262.049C-38.5109 260.589 -41.3909 258.939 -44.0609 257.159C-46.8209 255.319 -49.4609 253.249 -51.9009 251.009C-54.3609 248.759 -56.5809 246.429 -58.6809 243.899C-62.9309 238.769 -66.3709 233.039 -68.9109 226.879C-69.5409 225.319 -70.1109 223.719 -70.6009 222.149C-71.0309 220.799 -71.4509 219.199 -71.8609 217.389C-72.7309 213.629 -73.2509 210.669 -73.5409 207.779C-73.7109 206.169 -73.8009 204.329 -73.8009 202.729C-73.8109 201.109 -73.7809 199.469 -73.7009 197.889C-73.5109 194.379 -73.1309 191.189 -72.5209 188.129C-71.9209 185.009 -70.9909 181.709 -69.8309 178.609C-68.7309 175.589 -67.4009 172.589 -65.8809 169.709C-62.9309 164.029 -58.9809 158.759 -54.1409 154.049C-49.4909 149.569 -44.3309 145.689 -38.8009 142.539L-38.2709 142.259L-31.1909 139.239C-28.6809 138.239 -26.0509 137.389 -23.3609 136.719C-18.2509 135.489 -12.8209 134.909 -7.24088 134.979C-1.85088 135.049 3.50912 135.759 8.68913 137.089C9.74912 137.359 10.7991 137.679 11.8091 138.019C11.0191 137.319 10.2291 136.579 9.47913 135.809C5.74912 131.989 2.45912 127.699 -0.290878 123.059C-3.16088 118.219 -5.35088 113.219 -6.81087 108.219C-7.57088 105.549 -8.15088 102.849 -8.53088 100.179L-9.47088 91.9394C-9.49088 85.5694 -8.71088 79.1695 -7.15088 72.8995C-5.50088 66.4195 -2.91088 60.3695 0.569122 54.8995C2.29913 52.1395 4.22913 49.4894 6.29913 47.0094C8.39912 44.4594 10.7891 42.0095 13.1991 39.9095C15.5091 37.8895 18.0891 35.9595 21.0791 34.0295C22.4191 33.1695 23.8191 32.3295 25.2391 31.5295C26.6291 30.7295 28.2791 29.8995 29.7591 29.2395C32.4091 28.0595 35.2491 27.0395 38.9391 25.9195C40.5291 25.4295 42.2191 24.9795 43.6991 24.6495C45.3191 24.2895 46.9791 23.9895 48.6391 23.7595C55.2391 22.8795 61.9191 23.0095 68.4991 24.1395C71.6691 24.6895 74.7891 25.4495 78.0491 26.4795C81.2091 27.4795 84.3091 28.7395 87.2891 30.2195C90.1691 31.6395 93.0391 33.3195 95.8091 35.2095C96.8791 35.9395 97.9791 36.7394 99.0991 37.5794C100.239 36.7094 101.319 35.9395 102.389 35.2095C105.159 33.3195 108.029 31.6395 110.909 30.2195C113.889 28.7395 116.989 27.4895 120.149 26.4895C123.329 25.4795 126.449 24.7195 129.699 24.1495C136.269 23.0195 142.949 22.8995 149.549 23.7695C151.209 23.9995 152.879 24.2995 154.499 24.6595C155.899 24.9695 157.499 25.3995 159.249 25.9395C162.929 27.0595 165.759 28.0795 168.419 29.2695C169.899 29.9295 171.549 30.7695 172.929 31.5595C174.359 32.3695 175.759 33.2095 177.079 34.0595C180.029 35.9695 182.599 37.8995 184.949 39.9495C187.359 42.0295 189.749 44.4795 191.859 47.0295C193.929 49.4995 195.869 52.1395 197.609 54.8995C201.069 60.2995 203.659 66.3494 205.329 72.8894C206.899 79.1594 207.679 85.5595 207.659 91.9295L207.639 92.5295L206.729 100.159C206.339 102.849 205.759 105.549 204.999 108.209C203.519 113.259 201.319 118.249 198.459 123.059C195.709 127.699 192.409 131.989 188.679 135.809C187.939 136.569 187.169 137.289 186.379 137.979C187.359 137.649 188.349 137.349 189.349 137.089C194.529 135.759 199.889 135.049 205.279 134.979C210.909 134.919 216.329 135.499 221.399 136.729C224.089 137.399 226.719 138.239 229.229 139.239L236.839 142.529C242.369 145.679 247.529 149.559 252.179 154.039C256.969 158.699 260.929 163.969 263.929 169.709C265.449 172.579 266.789 175.569 267.909 178.609C269.069 181.709 269.999 184.999 270.619 188.129C271.219 191.149 271.609 194.349 271.789 197.899C271.869 199.469 271.899 201.1 271.879 202.749C271.879 204.339 271.779 206.179 271.609 207.799C271.309 210.689 270.779 213.649 269.909 217.409C269.539 219.019 269.089 220.709 268.639 222.159C268.139 223.749 267.579 225.339 266.949 226.889C264.409 233.049 260.969 238.779 256.719 243.909C254.669 246.379 252.439 248.709 249.929 251.019C247.489 253.259 244.849 255.319 242.089 257.169C239.419 258.959 236.529 260.599 233.519 262.059C232.349 262.63 231.129 263.169 229.819 263.729C229.999 265.149 230.139 266.479 230.239 267.759C230.489 271.099 230.519 274.419 230.319 277.629C230.119 280.939 229.649 284.259 228.949 287.499C228.239 290.749 227.349 293.839 226.219 296.939C223.919 303.199 220.699 309.049 216.649 314.329C215.619 315.659 214.529 316.949 213.409 318.169C212.449 319.229 211.279 320.409 209.929 321.649C207.119 324.289 204.819 326.219 202.469 327.929C201.169 328.879 199.619 329.889 198.229 330.699C196.829 331.529 195.399 332.319 193.989 333.049C190.859 334.649 187.909 335.919 184.959 336.929C181.949 337.979 178.629 338.829 175.379 339.389C172.199 339.959 168.939 340.309 165.699 340.449C164.789 340.489 163.879 340.509 162.959 340.509L162.869 340.559ZM98.9791 281.549L99.5491 285.189C99.9291 287.599 100.429 289.919 101.039 292.079C102.459 297.139 104.509 302.049 107.109 306.669C109.809 311.459 112.989 315.779 116.549 319.519C118.439 321.469 120.449 323.279 122.539 324.919L129.089 329.759C134.509 332.909 140.359 335.379 146.479 337.129C152.859 338.909 159.289 339.659 165.559 339.359C168.759 339.229 171.969 338.879 175.089 338.319C178.289 337.769 181.539 336.929 184.489 335.899C187.389 334.909 190.299 333.659 193.369 332.089C194.759 331.369 196.159 330.589 197.549 329.769C198.909 328.979 200.419 327.989 201.689 327.069C203.999 325.389 206.269 323.479 209.039 320.879C210.359 319.649 211.509 318.499 212.449 317.459C213.549 316.259 214.619 314.999 215.629 313.689C219.609 308.499 222.769 302.749 225.029 296.599C226.139 293.549 227.019 290.509 227.719 287.309C228.409 284.129 228.869 280.869 229.069 277.609C229.269 274.459 229.239 271.189 228.989 267.899C228.889 266.509 228.729 265.059 228.519 263.499L228.459 263.059L228.869 262.889C230.319 262.289 231.639 261.699 232.919 261.079C235.889 259.649 238.719 258.029 241.359 256.269C244.069 254.459 246.669 252.429 249.069 250.229C251.549 247.959 253.729 245.669 255.749 243.239C259.929 238.189 263.309 232.569 265.799 226.519C266.409 224.999 266.969 223.439 267.459 221.879C267.909 220.449 268.349 218.799 268.709 217.209C269.579 213.499 270.089 210.579 270.389 207.739C270.559 206.159 270.649 204.349 270.649 202.799C270.669 201.159 270.639 199.549 270.559 198.009C270.379 194.519 269.999 191.379 269.409 188.409C268.809 185.339 267.889 182.109 266.749 179.059C265.649 176.069 264.329 173.119 262.839 170.299C259.889 164.669 256.009 159.489 251.299 154.919C246.719 150.509 241.639 146.689 236.189 143.589L235.769 143.369L228.709 140.359C226.259 139.379 223.679 138.549 221.039 137.899C216.069 136.699 210.719 136.119 205.209 136.189C199.909 136.259 194.639 136.959 189.559 138.269C187.579 138.779 185.669 139.459 183.729 140.179L180.559 141.359L183.159 139.199C184.699 137.919 186.319 136.549 187.769 135.059C191.449 131.299 194.679 127.089 197.389 122.519C200.189 117.789 202.349 112.879 203.809 107.929C204.559 105.329 205.129 102.679 205.499 100.049L206.429 92.2694V91.9594C206.449 85.6894 205.679 79.3795 204.129 73.2095C202.489 66.7995 199.939 60.8595 196.549 55.5595C194.839 52.8495 192.929 50.2395 190.889 47.8095C188.819 45.3095 186.469 42.9095 184.109 40.8595C181.799 38.8395 179.269 36.9495 176.369 35.0595C175.069 34.2195 173.699 33.3895 172.279 32.5895C170.919 31.8095 169.319 30.9895 167.869 30.3495C165.259 29.1795 162.469 28.1695 158.839 27.0695C157.119 26.5395 155.549 26.1195 154.169 25.8195C152.579 25.4595 150.949 25.1695 149.319 24.9395C142.839 24.0795 136.279 24.2095 129.819 25.3095C126.629 25.8695 123.549 26.6195 120.429 27.6095C117.329 28.5895 114.279 29.8295 111.359 31.2795C108.529 32.6795 105.709 34.3295 102.979 36.1895C101.819 36.9795 100.649 37.8295 99.3991 38.7895L99.0491 39.0595L98.6991 38.7895C97.4891 37.8595 96.2791 36.9795 95.1191 36.1895C92.3891 34.3295 89.5691 32.6795 86.7391 31.2795C83.8191 29.8295 80.7691 28.5895 77.6691 27.6095C74.4591 26.5995 71.3891 25.8395 68.2791 25.3095C61.8191 24.1995 55.2591 24.0795 48.7691 24.9395C47.1391 25.1695 45.5091 25.4595 43.9291 25.8095C42.4791 26.1295 40.8191 26.5695 39.2591 27.0595C35.6091 28.1595 32.8191 29.1694 30.2091 30.3294C28.7691 30.9694 27.1591 31.7895 25.7891 32.5695C24.3791 33.3595 22.9991 34.1895 21.6791 35.0295C18.7391 36.9295 16.1991 38.8295 13.9291 40.8095C11.5591 42.8695 9.21912 45.2695 7.15913 47.7795C5.11913 50.2195 3.21912 52.8295 1.51913 55.5395C-1.89088 60.9095 -4.44087 66.8495 -6.06087 73.2095C-7.60088 79.3795 -8.37087 85.6894 -8.35088 91.9594L-8.33088 92.4195L-7.42088 100.039C-7.05087 102.649 -6.48087 105.299 -5.73087 107.909C-4.30087 112.819 -2.14088 117.719 0.679123 122.479C3.38912 127.039 6.61912 131.259 10.2791 135.009C11.7791 136.549 13.4691 137.979 14.9291 139.189L17.5591 141.369L14.3591 140.179C12.5691 139.509 10.4791 138.749 8.37912 138.219C3.28912 136.909 -1.97088 136.209 -7.28088 136.139C-12.7809 136.079 -18.1009 136.649 -23.1109 137.849C-25.7409 138.499 -28.3209 139.329 -30.7809 140.309L-38.2509 143.539C-43.6909 146.649 -48.7809 150.459 -53.3609 154.879C-58.1109 159.499 -61.9809 164.679 -64.8809 170.249C-66.3809 173.089 -67.6909 176.039 -68.7709 179.019C-69.9009 182.069 -70.8209 185.299 -71.4109 188.359C-72.0109 191.369 -72.3909 194.509 -72.5709 197.959C-72.6509 199.519 -72.6809 201.129 -72.6709 202.739C-72.6709 204.309 -72.5809 206.109 -72.4209 207.679C-72.1309 210.509 -71.6209 213.429 -70.7609 217.149C-70.3609 218.929 -69.9409 220.499 -69.5209 221.819C-69.0409 223.369 -68.4809 224.929 -67.8609 226.459C-65.3709 232.509 -61.9909 238.129 -57.8109 243.179C-55.7409 245.669 -53.5509 247.959 -51.1309 250.179C-48.7309 252.379 -46.1309 254.409 -43.4209 256.219C-40.7909 257.979 -37.9609 259.599 -34.9909 261.029C-33.7209 261.639 -32.4009 262.229 -30.9509 262.839L-30.5409 263.009L-30.6009 263.449C-30.8009 264.979 -30.9609 266.459 -31.0709 267.859C-31.3209 271.149 -31.3509 274.419 -31.1509 277.569C-30.9509 280.819 -30.5009 284.089 -29.8009 287.269C-29.0809 290.559 -28.2009 293.599 -27.1109 296.559C-24.8509 302.709 -21.6809 308.459 -17.7009 313.649C-16.7009 314.939 -15.6309 316.209 -14.5309 317.409C-13.5309 318.499 -12.3209 319.719 -11.1209 320.839C-8.34087 323.459 -6.08088 325.369 -3.78088 327.049C-2.51088 327.979 -1.00088 328.969 0.359123 329.759C1.75912 330.589 3.16912 331.379 4.53912 332.089C7.64912 333.689 10.5591 334.939 13.4191 335.919C16.3791 336.939 19.6391 337.769 22.8391 338.319C25.9691 338.869 29.1791 339.209 32.3791 339.339C38.7291 339.619 45.1591 338.869 51.4691 337.099C57.5891 335.359 63.4391 332.879 68.8591 329.729L69.2591 329.479L75.4091 324.889C77.4791 323.269 79.4991 321.449 81.3991 319.499C84.9391 315.809 88.1191 311.489 90.8391 306.659C93.4391 302.039 95.4791 297.129 96.9091 292.069C97.5191 289.929 98.0191 287.619 98.3991 285.209L98.9691 281.569L98.9791 281.549ZM161.169 329.949C156.899 329.949 152.729 329.479 148.699 328.539C143.239 327.239 137.969 325.279 133.049 322.709L127.189 318.729C125.309 317.389 123.479 315.879 121.749 314.249C118.369 311.109 115.309 307.429 112.649 303.319C107.299 295.059 104.089 285.729 103.379 276.329C103.149 272.959 103.279 269.429 103.409 266.379L103.629 261.449C103.829 257.479 103.859 253.509 103.889 249.659C103.889 248.529 103.909 247.399 103.919 246.269C103.929 241.399 103.909 236.209 103.469 231.099C103.019 226.299 102.179 221.499 101.359 216.859L101.129 215.519L101.749 215.459C109.009 214.719 115.789 210.959 120.349 205.149L120.719 204.679L121.179 205.059C122.609 206.259 124.249 207.669 125.629 209.279C127.449 211.399 128.869 213.879 130.249 216.279L130.619 216.929C131.069 217.719 131.359 217.739 131.899 217.579C133.309 217.179 134.709 216.779 136.119 216.379C138.479 215.709 140.839 215.029 143.199 214.389C143.389 214.339 143.529 214.279 143.629 214.209C143.639 214.089 143.629 213.929 143.569 213.749C142.939 211.389 142.339 209.029 141.739 206.669C141.379 205.239 141.009 203.809 140.639 202.369C140.499 201.829 140.339 201.589 139.449 201.589H138.639C135.879 201.609 133.039 201.629 130.309 201.119C128.229 200.729 126.199 200.039 124.469 199.409L123.899 199.209L124.129 198.649C125.469 195.369 126.149 191.919 126.149 188.399C126.149 184.579 125.349 180.849 123.769 177.319L123.519 176.759L124.739 176.309C129.169 174.679 133.759 172.989 138.149 170.949C142.789 168.749 147.279 166.169 151.469 163.719C152.419 163.159 153.369 162.589 154.319 162.029C157.649 160.069 161.089 158.029 164.429 155.849L165.529 155.139C169.219 152.749 172.699 150.499 176.349 148.629C176.469 148.569 176.579 148.499 176.689 148.429C176.839 148.339 176.999 148.249 177.149 148.169C185.629 144.079 195.289 142.179 205.119 142.659C209.969 142.889 214.679 143.689 219.119 145.029C221.399 145.709 223.619 146.529 225.709 147.479L232.029 150.509C236.779 153.509 241.109 157.079 244.979 161.139C248.719 165.119 251.849 169.669 254.299 174.649C255.519 177.129 256.569 179.709 257.439 182.319C258.329 184.959 258.979 187.549 259.429 190.219C259.859 192.759 260.129 195.509 260.209 198.379C260.239 199.739 260.239 201.129 260.189 202.539C260.149 203.899 260.059 205.089 259.889 206.509C259.589 208.849 259.069 211.419 258.249 214.609C257.889 216.029 257.559 217.249 257.129 218.549C256.709 219.819 256.239 221.089 255.729 222.309C253.639 227.219 250.699 231.959 247.229 236.019C245.499 238.029 243.529 240.059 241.519 241.899C239.529 243.699 237.379 245.369 235.139 246.849C232.939 248.309 230.549 249.659 228.029 250.859C226.709 251.489 225.469 252.039 224.249 252.529C223.819 252.729 223.349 252.869 222.909 253.009C222.699 253.069 222.489 253.139 222.279 253.209L221.239 253.539C221.129 253.579 220.859 253.679 220.629 253.779C220.259 253.949 219.919 254.129 219.589 254.349C218.699 254.949 218.059 255.609 217.499 256.499L217.279 256.889C216.849 257.709 216.569 258.759 216.529 259.679C216.509 260.069 216.519 260.449 216.559 260.859C216.579 261.109 216.629 261.399 216.649 261.509L216.879 262.559C216.929 262.779 216.969 262.989 217.019 263.209C217.129 263.669 217.239 264.149 217.289 264.649C217.479 265.939 217.629 267.279 217.739 268.729C217.969 271.499 217.999 274.249 217.849 276.889C217.699 279.579 217.339 282.269 216.779 284.899C216.179 287.679 215.439 290.339 214.579 292.799C212.819 297.839 210.189 302.769 206.999 307.039C206.189 308.109 205.329 309.159 204.449 310.149C203.559 311.139 202.719 312.019 201.609 313.109C199.269 315.429 197.309 317.179 195.439 318.609C194.299 319.479 193.319 320.149 192.149 320.879C190.969 321.619 189.759 322.329 188.569 322.989C185.969 324.409 183.529 325.539 181.109 326.439C178.579 327.389 176.009 328.119 173.259 328.679C170.589 329.229 167.819 329.609 165.049 329.799C163.749 329.889 162.449 329.929 161.159 329.929L161.169 329.949ZM102.489 216.549L102.509 216.679C103.329 221.339 104.169 226.159 104.629 231.009C105.069 236.169 105.089 241.389 105.079 246.289C105.069 247.419 105.059 248.549 105.049 249.679C105.019 253.539 104.999 257.529 104.789 261.519L104.569 266.439C104.429 269.459 104.309 272.949 104.539 276.249C105.239 285.449 108.379 294.599 113.629 302.699C116.239 306.729 119.239 310.339 122.549 313.419C124.249 315.019 126.029 316.499 127.859 317.799L133.639 321.729C138.419 324.219 143.589 326.139 148.959 327.419C154.089 328.609 159.479 329.039 164.979 328.669C167.699 328.479 170.409 328.109 173.029 327.569C175.759 327.019 178.189 326.329 180.699 325.379C183.069 324.499 185.459 323.389 188.009 321.999C189.179 321.349 190.369 320.649 191.539 319.919C192.679 319.209 193.629 318.549 194.739 317.709C196.569 316.299 198.489 314.589 200.799 312.299C201.889 311.229 202.719 310.359 203.589 309.389C204.449 308.429 205.289 307.409 206.079 306.359C209.199 302.179 211.769 297.359 213.499 292.429C214.339 290.019 215.069 287.409 215.659 284.669C216.209 282.109 216.559 279.469 216.709 276.839C216.859 274.249 216.829 271.559 216.609 268.839C216.489 267.409 216.349 266.089 216.159 264.809C216.109 264.359 216.019 263.939 215.909 263.499C215.859 263.279 215.809 263.059 215.759 262.829L215.539 261.849C215.469 261.629 215.439 261.339 215.409 260.999C215.359 260.529 215.349 260.089 215.379 259.649C215.429 258.569 215.759 257.349 216.259 256.389L216.519 255.919C217.159 254.909 217.929 254.109 218.939 253.429C219.319 253.179 219.729 252.949 220.139 252.769C220.449 252.629 220.719 252.499 220.949 252.449L221.909 252.149C222.119 252.079 222.339 252.009 222.559 251.939C222.989 251.809 223.399 251.679 223.789 251.509C225.009 251.019 226.229 250.479 227.529 249.859C229.989 248.679 232.339 247.359 234.499 245.929C236.699 244.479 238.799 242.849 240.749 241.079C242.729 239.279 244.669 237.279 246.359 235.309C249.759 231.339 252.629 226.699 254.679 221.899C255.179 220.709 255.639 219.469 256.049 218.229C256.469 216.959 256.789 215.759 257.149 214.359C257.959 211.219 258.469 208.689 258.759 206.399C258.929 204.999 259.009 203.879 259.049 202.529C259.099 201.139 259.099 199.769 259.069 198.429C258.989 195.609 258.729 192.919 258.309 190.429C257.879 187.809 257.239 185.279 256.369 182.699C255.519 180.139 254.489 177.609 253.289 175.179C250.889 170.299 247.829 165.849 244.169 161.949C240.369 157.959 236.099 154.449 231.489 151.539L225.249 148.549C223.209 147.629 221.049 146.829 218.809 146.159C214.459 144.849 209.839 144.069 205.079 143.839C195.449 143.369 185.969 145.229 177.669 149.239C177.549 149.299 177.419 149.379 177.289 149.449C177.149 149.529 177.019 149.609 176.879 149.679C173.289 151.519 169.829 153.759 166.159 156.129L165.059 156.839C161.699 159.029 158.249 161.069 154.909 163.039C153.959 163.599 153.009 164.159 152.059 164.729C147.839 167.199 143.329 169.789 138.639 172.009C134.199 174.069 129.589 175.769 125.129 177.409L125.069 177.429C126.559 180.939 127.309 184.629 127.309 188.409C127.309 191.879 126.679 195.289 125.419 198.539C126.979 199.089 128.739 199.669 130.519 199.999C133.139 200.49 135.929 200.469 138.629 200.449H139.419C139.419 200.449 139.429 200.449 139.439 200.449C140.759 200.449 141.449 200.939 141.749 202.099C142.119 203.529 142.479 204.969 142.849 206.399C143.449 208.759 144.049 211.119 144.669 213.469C144.739 213.729 144.769 213.979 144.769 214.199L146.179 214.899L144.389 215.079C144.159 215.269 143.859 215.419 143.489 215.519C141.129 216.169 138.769 216.839 136.419 217.509C135.009 217.909 133.609 218.309 132.199 218.709C131.049 219.029 130.269 218.679 129.599 217.519L129.229 216.869C127.879 214.519 126.489 212.079 124.739 210.049C123.549 208.669 122.149 207.419 120.869 206.339C116.259 211.969 109.609 215.659 102.469 216.549H102.489ZM36.8391 329.879C35.5191 329.879 34.1991 329.829 32.8791 329.739C30.1191 329.539 27.3591 329.159 24.6791 328.599C21.9391 328.039 19.3791 327.299 16.8491 326.339C14.4391 325.439 11.9291 324.289 9.39912 322.919C8.22913 322.279 7.02913 321.569 5.80913 320.809C4.63913 320.089 3.68913 319.429 2.52912 318.549C0.659119 317.119 -1.31088 315.369 -3.65088 313.059C-4.70088 312.019 -5.59087 311.129 -6.50088 310.109C-7.38087 309.129 -8.23088 308.079 -9.04088 307.009C-12.2309 302.739 -14.8609 297.809 -16.6209 292.769C-17.4909 290.269 -18.2509 287.539 -18.8309 284.879C-19.3909 282.259 -19.7509 279.559 -19.9009 276.869C-20.0509 274.229 -20.0209 271.479 -19.7909 268.709C-19.6709 267.239 -19.5209 265.899 -19.3309 264.599C-19.2809 264.119 -19.1709 263.649 -19.0609 263.189C-19.0109 262.979 -18.9609 262.77 -18.9209 262.559L-18.6809 261.479C-18.6609 261.359 -18.6109 261.089 -18.5909 260.849C-18.5509 260.459 -18.5409 260.059 -18.5609 259.669C-18.5909 259.199 -18.6609 258.729 -18.7809 258.279C-18.8409 258.039 -18.9209 257.799 -19.0109 257.559L-19.0809 257.389C-19.1509 257.219 -19.2109 257.079 -19.4609 256.619C-19.7209 256.189 -19.8209 256.069 -19.9409 255.909L-20.0509 255.769C-20.2009 255.579 -20.3709 255.389 -20.5509 255.219C-20.8809 254.889 -21.2409 254.599 -21.6409 254.339C-21.9709 254.119 -22.3009 253.939 -22.6709 253.769C-22.8909 253.669 -23.1509 253.569 -23.2609 253.529L-24.3009 253.199C-24.5209 253.129 -24.7209 253.059 -24.9309 252.999C-25.3809 252.859 -25.8509 252.719 -26.3009 252.509C-27.5109 252.019 -28.7809 251.459 -30.0609 250.849C-32.5809 249.649 -34.9709 248.299 -37.1709 246.839C-39.4209 245.359 -41.5709 243.689 -43.5509 241.889C-45.6609 239.959 -47.5809 237.989 -49.2709 236.019C-52.7409 231.959 -55.6809 227.219 -57.7709 222.309C-58.2909 221.079 -58.7609 219.819 -59.1709 218.549C-59.5809 217.289 -59.9209 216.109 -60.3009 214.609C-61.1309 211.419 -61.6509 208.849 -61.9609 206.509C-62.1409 205.089 -62.2309 203.899 -62.2709 202.529C-62.3209 201.129 -62.3309 199.729 -62.3009 198.369C-62.2209 195.409 -61.9709 192.739 -61.5309 190.189C-61.0809 187.529 -60.4209 184.939 -59.5209 182.279C-58.6509 179.689 -57.5909 177.109 -56.3609 174.619C-53.8609 169.569 -50.7209 165.029 -47.0309 161.109C-43.1609 157.039 -38.8209 153.479 -34.1309 150.509L-27.7609 147.449C-25.6509 146.499 -23.4409 145.679 -21.1609 144.999C-16.7609 143.659 -12.0509 142.859 -7.15088 142.629C2.67912 142.159 12.3391 144.059 20.8291 148.149C20.9891 148.229 21.1491 148.319 21.2991 148.409C21.4191 148.479 21.5291 148.549 21.6491 148.609C25.2991 150.479 28.7891 152.749 32.4891 155.139L33.5491 155.829C36.8491 157.989 40.2591 159.999 43.5491 161.939C44.5391 162.519 45.5291 163.109 46.5191 163.699C50.7191 166.149 55.1991 168.729 59.8391 170.939C64.2091 172.969 68.7691 174.649 73.1791 176.269L74.4591 176.739L74.2091 177.299C72.6191 180.839 71.8091 184.579 71.8091 188.419C71.8091 191.919 72.4891 195.359 73.8191 198.629L74.0491 199.189L73.4791 199.389C71.7491 200.009 69.7291 200.709 67.6491 201.089C64.9191 201.599 62.0691 201.579 59.3091 201.559H58.5291C58.5291 201.559 58.5191 201.559 58.5091 201.559C57.6191 201.559 57.4591 201.799 57.3191 202.339C56.9591 203.749 56.5991 205.149 56.2391 206.559C55.6291 208.949 55.0291 211.339 54.3991 213.719C54.3491 213.909 54.3291 214.059 54.3391 214.179C54.4391 214.249 54.5791 214.309 54.7691 214.359C57.1291 214.999 59.4791 215.679 61.8291 216.349C63.2391 216.749 64.6591 217.159 66.0691 217.549C66.6091 217.699 66.8991 217.689 67.3491 216.899L67.7391 216.229C69.1091 213.839 70.5291 211.359 72.3491 209.249C73.7291 207.639 75.3591 206.239 76.7791 205.049L77.2391 204.669L77.6091 205.139C82.1691 210.969 88.9591 214.739 96.2291 215.479L96.8491 215.539L96.6291 216.799C95.8091 221.459 94.9591 226.289 94.5091 231.119C94.0791 236.249 94.0491 241.419 94.0591 246.279L94.0791 249.539C94.1091 253.419 94.1291 257.439 94.3391 261.439C94.3991 262.639 94.4491 263.82 94.4991 264.999L94.5591 266.389C94.6991 269.439 94.8191 272.969 94.5891 276.309C93.8691 285.699 90.6591 295.019 85.3091 303.279C82.6691 307.359 79.6091 311.029 76.2191 314.209C74.4891 315.839 72.6591 317.349 70.7891 318.679L64.9891 322.619C60.0191 325.209 54.7491 327.169 49.2891 328.479C45.2391 329.419 41.0791 329.889 36.8891 329.889L36.8391 329.879ZM-17.5909 261.809L-17.8109 262.799C-17.8509 263.009 -17.9009 263.229 -17.9609 263.449C-18.0609 263.889 -18.1609 264.319 -18.2009 264.739C-18.3909 266.039 -18.5309 267.359 -18.6509 268.799C-18.8709 271.519 -18.9009 274.209 -18.7509 276.799C-18.6009 279.439 -18.2509 282.069 -17.7009 284.639C-17.1409 287.259 -16.3909 289.939 -15.5309 292.389C-13.8009 297.319 -11.2409 302.139 -8.12087 306.319C-7.33087 307.369 -6.49088 308.389 -5.64088 309.349C-4.75088 310.349 -3.88087 311.229 -2.85088 312.249C-0.540878 314.529 1.38912 316.239 3.21912 317.639C4.34912 318.489 5.27913 319.129 6.40913 319.829C7.60912 320.579 8.79913 321.279 9.93913 321.899C12.4091 323.249 14.8691 324.379 17.2391 325.259C19.7491 326.209 22.1791 326.909 24.8991 327.469C27.5291 328.019 30.2391 328.399 32.9491 328.589C38.3691 328.969 43.7591 328.549 48.9691 327.349C54.3391 326.069 59.5091 324.139 64.3391 321.629L70.0691 317.729C71.8891 316.429 73.6791 314.959 75.3691 313.359C78.6991 310.249 81.6991 306.639 84.2791 302.649C89.5291 294.549 92.6791 285.409 93.3791 276.219C93.6091 272.949 93.4891 269.459 93.3491 266.439L93.2891 265.049C93.2391 263.869 93.1891 262.689 93.1291 261.499C92.9191 257.469 92.8891 253.439 92.8691 249.549L92.8491 246.289C92.8391 241.399 92.8691 236.199 93.2991 231.019C93.7491 226.129 94.6091 221.289 95.4291 216.599V216.559C88.2791 215.66 81.6291 211.959 77.0191 206.319C75.7491 207.399 74.3591 208.629 73.1791 210.009C71.4391 212.039 70.0491 214.459 68.6991 216.809L68.3091 217.479C67.6491 218.639 66.8691 218.989 65.7191 218.669C64.2991 218.269 62.8891 217.869 61.4691 217.459C59.1191 216.789 56.7791 216.119 54.4191 215.479C54.0591 215.379 53.7691 215.239 53.5391 215.059H51.7591L53.1391 214.199C53.1391 213.969 53.1591 213.709 53.2391 213.429C53.8691 211.049 54.4791 208.669 55.0791 206.289C55.4391 204.879 55.7991 203.469 56.1591 202.069C56.4591 200.909 57.1191 200.409 58.4891 200.419H59.2791C61.9791 200.439 64.7691 200.459 67.3991 199.969C69.1791 199.639 70.9291 199.069 72.4891 198.519C71.2491 195.279 70.6191 191.889 70.6191 188.439C70.6191 184.639 71.3791 180.939 72.8791 177.409L72.7591 177.369C68.3191 175.739 63.7291 174.049 59.3091 171.989C54.6291 169.769 50.1091 167.169 45.8891 164.699C44.8991 164.109 43.9091 163.529 42.9191 162.939C39.6191 160.989 36.1991 158.969 32.8791 156.799L31.8191 156.109C28.1491 153.729 24.6791 151.479 21.0791 149.639C20.9391 149.569 20.8091 149.489 20.6691 149.409C20.5391 149.329 20.4091 149.259 20.2791 149.189C11.9791 145.179 2.49912 143.309 -7.13087 143.779C-11.9309 144.009 -16.5509 144.789 -20.8609 146.109C-23.0909 146.769 -25.2609 147.579 -27.3109 148.499L-33.6109 151.519C-38.1609 154.399 -42.4309 157.909 -46.2309 161.899C-49.8409 165.729 -52.9109 170.179 -55.3609 175.129C-56.5609 177.569 -57.6009 180.099 -58.4609 182.649C-59.3509 185.249 -59.9909 187.779 -60.4309 190.379C-60.8609 192.869 -61.1009 195.489 -61.1809 198.389C-61.2109 199.719 -61.2009 201.099 -61.1509 202.479C-61.1109 203.829 -61.0209 204.959 -60.8509 206.359C-60.5509 208.639 -60.0409 211.169 -59.2209 214.309C-58.8409 215.789 -58.5109 216.949 -58.1109 218.179C-57.7009 219.419 -57.2409 220.659 -56.7409 221.849C-54.7009 226.649 -51.8209 231.289 -48.4309 235.259C-46.7709 237.199 -44.8809 239.139 -42.8109 241.029C-40.8709 242.789 -38.7709 244.419 -36.5709 245.869C-34.4109 247.299 -32.0709 248.619 -29.6009 249.799C-28.3409 250.399 -27.1009 250.949 -25.8909 251.439C-25.4809 251.629 -25.0709 251.749 -24.6309 251.889C-24.4109 251.959 -24.1909 252.019 -23.9809 252.099L-23.0409 252.399C-22.8109 252.449 -22.5509 252.569 -22.2309 252.719C-21.8109 252.909 -21.4209 253.129 -21.0409 253.369C-20.5809 253.669 -20.1509 254.019 -19.7709 254.399C-19.5609 254.609 -19.3709 254.829 -19.1809 255.059L-19.0709 255.199C-18.9309 255.379 -18.8209 255.519 -18.5009 256.039C-18.1909 256.599 -18.1309 256.759 -18.0509 256.959L-17.9809 257.119C-17.8709 257.409 -17.7809 257.699 -17.7009 257.979C-17.5609 258.499 -17.4809 259.049 -17.4409 259.599C-17.4109 260.049 -17.4209 260.509 -17.4709 260.969C-17.5009 261.299 -17.5309 261.589 -17.6009 261.809H-17.5909ZM98.9691 210.529C86.7791 210.529 76.8691 200.609 76.8691 188.429C76.8691 176.249 86.7891 166.319 98.9691 166.319C111.149 166.319 121.079 176.239 121.079 188.429C121.079 200.619 111.159 210.529 98.9691 210.529ZM98.9691 167.469C87.4191 167.469 78.0191 176.869 78.0191 188.419C78.0191 199.969 87.4191 209.369 98.9691 209.369C110.519 209.369 119.919 199.969 119.919 188.419C119.919 176.869 110.519 167.469 98.9691 167.469ZM76.5891 173.029L75.6591 172.249C72.0191 169.199 68.2491 166.049 64.2591 163.249C60.0291 160.329 55.5591 157.729 51.3491 155.319C50.3991 154.779 49.4391 154.239 48.4891 153.699C45.1191 151.789 41.6391 149.819 38.0691 148.009L36.4791 147.189C32.6991 145.259 28.7991 143.259 25.3691 140.979L25.2691 140.919C25.1991 140.879 25.1391 140.849 25.0791 140.809C17.3091 135.499 10.8391 128.069 6.35912 119.319C4.13912 114.999 2.48912 110.519 1.42912 105.999C0.87912 103.679 0.489128 101.349 0.259125 99.0694L-0.26088 92.0794C-0.0308762 86.4694 0.899124 80.9295 2.48912 75.5595C4.07912 70.3395 6.44913 65.3595 9.54913 60.7495C11.0991 58.4495 12.8091 56.2495 14.6291 54.2095C16.4791 52.1195 18.3891 50.2595 20.4891 48.5495C22.4791 46.8995 24.7291 45.3094 27.1691 43.7994C28.3191 43.0994 29.5391 42.4095 30.7891 41.7395C31.9991 41.0895 33.0391 40.5894 34.3791 40.0194C36.5691 39.1094 39.0591 38.2695 42.2191 37.3995C43.6391 36.9995 44.8591 36.6795 46.1991 36.4095C47.4891 36.1395 48.8291 35.9195 50.1591 35.7495C55.4591 35.1095 61.0291 35.2995 66.2791 36.2795C68.8791 36.7695 71.6291 37.4694 74.2191 38.2994C76.7791 39.1294 79.2891 40.1595 81.6991 41.3695C84.0591 42.5495 86.4191 43.9495 88.7191 45.5295C89.9291 46.3595 91.0191 47.1595 92.0491 47.9795C92.4391 48.2595 92.7891 48.5895 93.1391 48.9095C93.2991 49.0595 93.4591 49.2095 93.6191 49.3495L94.4391 50.0995C94.5291 50.1795 94.7391 50.3495 94.9391 50.4895C95.2591 50.7195 95.5991 50.9295 95.9491 51.0995C96.3791 51.3095 96.8191 51.4795 97.2591 51.5995C97.4991 51.6695 97.7491 51.7194 97.9991 51.7594L98.1691 51.7795C98.3591 51.8095 98.5091 51.8295 99.0391 51.8395C99.5391 51.8295 99.6891 51.8095 99.8791 51.7795L100.059 51.7495C100.299 51.7095 100.549 51.6595 100.779 51.5895C101.229 51.4695 101.669 51.2995 102.089 51.0895C102.439 50.9095 102.779 50.7095 103.089 50.4795C103.289 50.3395 103.489 50.1695 103.589 50.0895L104.409 49.3495C104.579 49.1995 104.739 49.0495 104.899 48.8995C105.239 48.5795 105.599 48.2494 106.009 47.9494C107.019 47.1494 108.109 46.3494 109.319 45.5194C111.619 43.9394 113.979 42.5395 116.339 41.3595C118.749 40.1495 121.259 39.1194 123.819 38.2994C126.539 37.4294 129.209 36.7494 131.759 36.2695C137.009 35.2795 142.579 35.0995 147.879 35.7395C149.219 35.9095 150.549 36.1295 151.839 36.3995C153.129 36.6695 154.319 36.9695 155.819 37.3795C158.979 38.2495 161.479 39.0695 163.659 39.9795C164.989 40.5395 166.069 41.0495 167.269 41.6995C168.509 42.3595 169.729 43.0495 170.889 43.7495C173.419 45.2995 175.609 46.8495 177.589 48.4895C179.669 50.1995 181.589 52.0595 183.439 54.1695C185.249 56.2095 186.959 58.4195 188.499 60.7295C191.619 65.4095 193.999 70.3995 195.559 75.5495C197.149 80.9395 198.079 86.4694 198.309 92.0194L197.779 99.0794C197.549 101.379 197.159 103.719 196.609 106.029C195.569 110.509 193.909 114.999 191.679 119.359C187.189 128.109 180.709 135.549 172.919 140.859C172.849 140.909 172.769 140.949 172.699 140.989L172.569 141.069C169.149 143.329 165.269 145.309 161.519 147.229L159.919 148.049C156.399 149.839 152.959 151.789 149.629 153.669C148.629 154.239 147.629 154.799 146.619 155.369C142.399 157.789 137.919 160.389 133.699 163.319C129.759 166.099 126.029 169.209 122.419 172.229L122.049 172.539V172.649L121.279 172.989L121.009 172.609C116.699 166.609 110.059 162.579 102.789 161.539L102.199 161.459L102.299 160.869C102.699 158.649 103.089 156.809 103.719 155.019C104.639 152.399 106.069 149.949 107.459 147.579L107.859 146.889C108.319 146.099 108.189 145.839 107.789 145.449C106.739 144.429 105.699 143.409 104.649 142.389C102.889 140.679 101.129 138.969 99.3891 137.239C99.2491 137.099 99.1291 137.009 99.0191 136.959C98.9091 137.009 98.7791 137.109 98.6491 137.239C96.9291 138.939 95.1991 140.629 93.4691 142.309C92.3991 143.349 91.3191 144.399 90.2491 145.439C89.8491 145.829 89.7191 146.089 90.1791 146.879L90.5791 147.559C91.9691 149.939 93.3991 152.389 94.3191 155.009C94.9491 156.799 95.3391 158.629 95.7291 160.829L95.8391 161.419L95.2391 161.499C87.9391 162.499 81.2591 166.519 76.9191 172.519L76.5591 173.019L76.5891 173.029ZM103.579 160.479C110.729 161.659 117.239 165.609 121.619 171.429L121.729 171.339C125.359 168.309 129.109 165.179 133.079 162.369C137.339 159.419 141.839 156.799 146.089 154.359C147.099 153.789 148.099 153.229 149.099 152.659C152.439 150.769 155.889 148.809 159.429 147.019L161.029 146.199C164.929 144.209 168.609 142.319 171.969 140.099C172.039 140.059 172.099 140.019 172.169 139.979C172.219 139.949 172.269 139.929 172.309 139.899C179.929 134.699 186.289 127.409 190.689 118.829C192.879 114.549 194.509 110.159 195.529 105.759C196.069 103.499 196.449 101.209 196.679 98.9695L197.199 91.9995C196.969 86.6195 196.059 81.1694 194.489 75.8794C192.959 70.8394 190.639 65.9495 187.579 61.3695C186.069 59.1095 184.389 56.9394 182.609 54.9394C180.769 52.8394 178.949 51.0794 176.889 49.3794C174.949 47.7694 172.799 46.2495 170.319 44.7295C169.179 44.0395 167.979 43.3595 166.759 42.7095C165.579 42.0695 164.559 41.5895 163.249 41.0395C161.109 40.1495 158.659 39.3395 155.539 38.4895C154.059 38.0795 152.889 37.7895 151.629 37.5195C150.369 37.2494 149.069 37.0395 147.759 36.8795C142.579 36.2595 137.119 36.4395 131.989 37.3995C129.479 37.8695 126.859 38.5395 124.189 39.3895C121.689 40.1995 119.229 41.1995 116.879 42.3895C114.569 43.5495 112.249 44.9195 109.999 46.4695C108.809 47.2895 107.739 48.0695 106.729 48.8695C106.359 49.1295 106.049 49.4295 105.719 49.7395C105.549 49.8995 105.379 50.0494 105.209 50.1994L104.479 50.8595C104.329 51.0295 104.079 51.2095 103.789 51.4095C103.429 51.6695 103.039 51.9095 102.629 52.1095C102.139 52.3595 101.619 52.5494 101.099 52.6994C100.819 52.7794 100.529 52.8394 100.229 52.8894L100.049 52.9095C99.8291 52.9395 99.6591 52.9695 99.0391 52.9795C98.3991 52.9695 98.2191 52.9395 97.9991 52.9095L97.8391 52.8894C97.5291 52.8394 97.2391 52.7794 96.9591 52.6994C96.4391 52.5594 95.9291 52.3595 95.4291 52.1095C95.0191 51.9095 94.6291 51.6695 94.2691 51.3995C93.9991 51.2095 93.7591 51.0395 93.6091 50.8695L92.8591 50.1795C92.6991 50.0395 92.5291 49.8795 92.3591 49.7195C92.0291 49.4095 91.7091 49.1195 91.3691 48.8695C90.3391 48.0595 89.2691 47.2694 88.0791 46.4494C85.8291 44.8994 83.5191 43.5295 81.1991 42.3695C78.8491 41.1895 76.3891 40.1795 73.8791 39.3695C71.3291 38.5495 68.6291 37.8695 66.0791 37.3795C60.9391 36.4195 55.4891 36.2395 50.3091 36.8595C49.0091 37.0195 47.7091 37.2395 46.4491 37.4995C45.1491 37.7695 43.9491 38.0895 42.5491 38.4795C39.4391 39.3395 36.9891 40.1594 34.8491 41.0494C33.5491 41.5994 32.5291 42.0895 31.3491 42.7295C30.1191 43.3895 28.9191 44.0695 27.7891 44.7595C25.3891 46.2295 23.1891 47.7995 21.2391 49.4095C19.1891 51.0895 17.3091 52.8994 15.5091 54.9494C13.7191 56.9494 12.0491 59.1095 10.5291 61.3695C7.48912 65.8795 5.16912 70.7595 3.60912 75.8695C2.04913 81.1495 1.13912 86.5895 0.899124 92.0495L1.41912 98.9494C1.63912 101.169 2.01913 103.449 2.55913 105.719C3.58913 110.149 5.20912 114.539 7.38912 118.779C11.7791 127.359 18.1191 134.649 25.7291 139.839L25.8291 139.899C25.8891 139.929 25.9491 139.969 26.0091 139.999C29.3891 142.239 33.0891 144.139 36.9991 146.139L38.5891 146.959C42.1691 148.779 45.6691 150.759 49.0491 152.669C49.9991 153.209 50.9491 153.749 51.9091 154.289C56.1491 156.719 60.6391 159.329 64.9091 162.279C68.9291 165.109 72.7091 168.269 76.3691 171.329C80.7791 165.509 87.3291 161.569 94.5091 160.429C94.1591 158.539 93.7991 156.929 93.2491 155.369C92.3591 152.849 90.9591 150.439 89.5991 148.109L89.1991 147.419C88.5291 146.259 88.6091 145.409 89.4591 144.579C90.5291 143.529 91.5991 142.489 92.6791 141.439C94.4091 139.759 96.1391 138.079 97.8591 136.379C98.0591 136.179 98.2591 136.029 98.4691 135.919V134.139L99.4391 135.829C99.7091 135.939 99.9691 136.119 100.239 136.379C101.979 138.099 103.729 139.809 105.489 141.519C106.539 142.539 107.589 143.559 108.639 144.579C109.489 145.419 109.569 146.269 108.899 147.419L108.489 148.119C107.129 150.449 105.729 152.849 104.839 155.369C104.289 156.929 103.929 158.549 103.569 160.459L103.579 160.479Z" fill="url(#paint0_linear_3_2236)"/>
</g>
<defs>
<linearGradient id="paint0_linear_3_2236" x1="-73.8209" y1="181.889" x2="271.809" y2="181.889" gradientUnits="userSpaceOnUse">
<stop stop-color="#FCB912"/>
<stop offset="1" stop-color="#F7991C"/>
</linearGradient>
</defs>
</svg>
