<svg width="33" height="33" viewBox="0 0 33 33" fill="none" xmlns="http://www.w3.org/2000/svg">
<path d="M23.6309 0.879883H9.29095C4.42095 0.879883 0.460938 4.83996 0.460938 9.70996V24.0498C0.460938 28.9198 4.42095 32.8799 9.29095 32.8799H23.6309C28.5009 32.8799 32.4609 28.9198 32.4609 24.0498V9.70996C32.4609 4.83996 28.5009 0.879883 23.6309 0.879883ZM29.6209 24.0601C29.6209 27.3701 26.9309 30.0498 23.6309 30.0498H9.29095C5.99095 30.0498 3.3009 27.3601 3.3009 24.0601V9.72021C3.3009 6.42021 5.99095 3.72998 9.29095 3.72998H23.6309C26.9409 3.72998 29.6209 6.42021 29.6209 9.72021V24.0601Z" fill="white"/>
<path d="M16.4609 8.64062C11.9109 8.64062 8.21094 12.3406 8.21094 16.8906C8.21094 21.4406 11.9109 25.1406 16.4609 25.1406C21.0109 25.1406 24.7109 21.4406 24.7109 16.8906C24.7109 12.3406 21.0109 8.64062 16.4609 8.64062ZM16.4609 22.3003C13.4809 22.3003 11.0509 19.8706 11.0509 16.8906C11.0509 13.9106 13.4809 11.4805 16.4609 11.4805C19.4409 11.4805 21.8709 13.9106 21.8709 16.8906C21.8709 19.8706 19.4409 22.3003 16.4609 22.3003Z" fill="white"/>
<path d="M25.0507 6.23047C24.5007 6.23047 23.9707 6.45033 23.5807 6.84033C23.1907 7.23033 22.9707 7.76055 22.9707 8.31055C22.9707 8.86055 23.1907 9.39027 23.5807 9.78027C23.9707 10.1703 24.5007 10.3906 25.0507 10.3906C25.6007 10.3906 26.1307 10.1703 26.5207 9.78027C26.9107 9.39027 27.1307 8.85055 27.1307 8.31055C27.1307 7.77055 26.9107 7.22033 26.5207 6.84033C26.1307 6.45033 25.6007 6.23047 25.0507 6.23047Z" fill="white"/>
</svg>
