<svg width="33" height="33" viewBox="0 0 33 33" fill="none" xmlns="http://www.w3.org/2000/svg">
<path d="M16.9709 0.779297C8.13095 0.779297 0.960938 7.94955 0.960938 16.7896C0.960938 25.6296 8.13095 32.7993 16.9709 32.7993C25.8109 32.7993 32.981 25.6296 32.981 16.7896C32.981 7.94955 25.8109 0.779297 16.9709 0.779297ZM25.0009 13.0293V15.1997C23.9809 15.1997 22.9909 14.9994 22.0509 14.6094C21.4509 14.3594 20.8909 14.0294 20.3709 13.6294L20.3909 20.2993C20.3909 21.7993 19.7909 23.2093 18.7109 24.2793C17.8309 25.1493 16.7309 25.6996 15.5209 25.8696C15.2409 25.9096 14.9509 25.9297 14.6609 25.9297C13.3709 25.9297 12.1509 25.5097 11.1509 24.7397C10.9609 24.5997 10.781 24.4395 10.611 24.2695C9.44096 23.1195 8.84092 21.5597 8.94092 19.9097C9.02092 18.6597 9.52095 17.4693 10.351 16.5293C11.451 15.2893 13.0009 14.6094 14.6509 14.6094C14.9409 14.6094 15.2309 14.6294 15.5109 14.6694V17.6997C15.2409 17.6097 14.9609 17.5596 14.6609 17.5596C13.1509 17.5596 11.9309 18.7893 11.9509 20.2993C11.9609 21.2693 12.4909 22.1096 13.2709 22.5796C13.6409 22.7996 14.0609 22.9295 14.5109 22.9595C14.8609 22.9795 15.2009 22.9296 15.5109 22.8296C16.5909 22.4696 17.3709 21.4595 17.3709 20.2695V15.7993V7.63965H20.351C20.351 7.93965 20.3809 8.21951 20.4409 8.49951C20.6709 9.62951 21.3009 10.6093 22.1909 11.2793C22.9609 11.8593 23.9309 12.2095 24.9709 12.2095V13.0093L25.0009 13.0293Z" fill="white"/>
</svg>
