<svg width="33" height="33" viewBox="0 0 33 33" fill="none" xmlns="http://www.w3.org/2000/svg">
<path d="M14.8398 19.0098L20.0498 16.0098L14.8398 13.0098V19.0098Z" fill="white"/>
<path d="M16.8401 0C8.00009 0 0.830078 7.16977 0.830078 16.0098C0.830078 24.8498 8.00009 32.02 16.8401 32.02C25.6801 32.02 32.8501 24.8498 32.8501 16.0098C32.8501 7.16977 25.6801 0 16.8401 0ZM26.8401 16.02C26.8401 16.02 26.8401 19.2701 26.4301 20.8301C26.2001 21.6901 25.5201 22.3598 24.6701 22.5898C23.1001 22.9998 16.8401 23 16.8401 23C16.8401 23 10.6001 22.9998 9.01007 22.5698C8.15007 22.3398 7.48006 21.6601 7.25006 20.8101C6.84006 19.2601 6.84009 16 6.84009 16C6.84009 16 6.84006 12.7499 7.25006 11.1899C7.48006 10.3299 8.17007 9.64016 9.01007 9.41016C10.5801 9.00016 16.8401 9 16.8401 9C16.8401 9 23.1001 9.00018 24.6701 9.43018C25.5301 9.66018 26.2001 10.3399 26.4301 11.1899C26.8601 12.7599 26.8401 16.02 26.8401 16.02Z" fill="white"/>
</svg>
