<svg width="236" height="66" viewBox="0 0 236 66" fill="none" xmlns="http://www.w3.org/2000/svg">
<path d="M125.609 59.199C125.609 60.059 125.739 60.829 125.999 61.509C126.259 62.199 126.619 62.769 127.069 63.239C127.519 63.709 128.059 64.069 128.679 64.319C129.299 64.569 129.969 64.699 130.689 64.699C131.119 64.699 131.529 64.619 131.939 64.449C132.339 64.279 132.719 64.059 133.059 63.789C133.399 63.519 133.709 63.219 133.979 62.879C134.249 62.539 134.469 62.199 134.649 61.859L135.519 62.409C135.269 62.819 134.969 63.219 134.629 63.599C134.289 63.979 133.889 64.319 133.429 64.609C132.979 64.899 132.459 65.129 131.889 65.309C131.319 65.489 130.679 65.569 129.969 65.569C128.949 65.569 128.029 65.399 127.189 65.059C126.349 64.719 125.639 64.259 125.049 63.669C124.459 63.079 123.999 62.409 123.679 61.629C123.359 60.859 123.189 60.039 123.189 59.169C123.189 58.299 123.359 57.479 123.689 56.699C124.019 55.919 124.489 55.229 125.099 54.639C125.709 54.049 126.429 53.579 127.269 53.229C128.109 52.879 129.049 52.709 130.079 52.709C130.739 52.709 131.339 52.799 131.889 52.969C132.439 53.149 132.939 53.379 133.399 53.669C133.849 53.959 134.259 54.299 134.619 54.679C134.979 55.059 135.279 55.459 135.529 55.869L134.639 56.459C134.119 55.459 133.539 54.729 132.909 54.269C132.279 53.809 131.549 53.579 130.719 53.579C130.009 53.579 129.349 53.709 128.729 53.959C128.109 54.219 127.569 54.589 127.109 55.069C126.649 55.549 126.289 56.139 126.029 56.829C125.769 57.519 125.629 58.299 125.629 59.159L125.609 59.199Z" fill="#006666"/>
<path d="M138.059 53.0098H140.129V64.5098H146.319V65.2998H138.059V53.0098Z" fill="#006666"/>
<path d="M148.029 53.0098H150.099V65.2998H148.029V53.0098Z" fill="#006666"/>
<path d="M153.189 53.0098H154.349L162.409 61.9998H162.499V53.0098H163.409V65.5898H162.929L154.209 55.5898H154.129V65.2998H153.199V53.0098H153.189Z" fill="#006666"/>
<path d="M166.479 53.0098H168.549V65.2998H166.479V53.0098Z" fill="#006666"/>
<path d="M173.529 59.199C173.529 60.059 173.659 60.829 173.919 61.509C174.179 62.199 174.539 62.769 174.989 63.239C175.439 63.709 175.979 64.069 176.599 64.319C177.219 64.569 177.889 64.699 178.609 64.699C179.039 64.699 179.449 64.619 179.859 64.449C180.259 64.279 180.639 64.059 180.979 63.789C181.319 63.519 181.629 63.219 181.899 62.879C182.169 62.539 182.389 62.199 182.569 61.859L183.439 62.409C183.189 62.819 182.889 63.219 182.549 63.599C182.209 63.979 181.809 64.319 181.349 64.609C180.899 64.899 180.379 65.129 179.809 65.309C179.239 65.489 178.599 65.569 177.889 65.569C176.869 65.569 175.949 65.399 175.109 65.059C174.269 64.719 173.559 64.259 172.969 63.669C172.379 63.079 171.919 62.409 171.599 61.629C171.279 60.859 171.109 60.039 171.109 59.169C171.109 58.299 171.279 57.479 171.609 56.699C171.939 55.919 172.409 55.229 173.019 54.639C173.629 54.049 174.349 53.579 175.189 53.229C176.029 52.879 176.969 52.709 177.999 52.709C178.659 52.709 179.259 52.799 179.809 52.969C180.359 53.149 180.859 53.379 181.319 53.669C181.769 53.959 182.179 54.299 182.539 54.679C182.899 55.059 183.199 55.459 183.449 55.869L182.559 56.459C182.039 55.459 181.459 54.729 180.829 54.269C180.199 53.809 179.469 53.579 178.639 53.579C177.929 53.579 177.269 53.709 176.649 53.959C176.029 54.219 175.489 54.589 175.029 55.069C174.569 55.549 174.209 56.139 173.949 56.829C173.689 57.519 173.549 58.299 173.549 59.159L173.529 59.199Z" fill="#006666"/>
<path d="M77.7188 27.3789H82.6787V34.9389L91.5887 27.3789H95.4187L85.3687 35.8789L98.0988 47.4689H92.1387L82.6888 38.8689V47.4689H77.7287V27.3789H77.7188Z" fill="#006666"/>
<path d="M109.008 26.959L118.418 47.469H113.378L110.858 41.989H103.058L100.418 47.469H97.0781L106.868 26.959H109.008ZM103.988 40.119H110.028L107.048 33.629L103.988 40.119Z" fill="#006666"/>
<path d="M136.248 27.3789V29.0889H129.298V47.4689H124.378V29.0889H117.408V27.3789H136.248Z" fill="#006666"/>
<path d="M147.188 26.959L156.598 47.469H151.558L149.038 41.989H141.238L138.598 47.469H135.258L145.048 26.959H147.188ZM142.168 40.119H148.208L145.228 33.629L142.168 40.119Z" fill="#006666"/>
<path d="M159.059 27.3789H167.679C168.839 27.3789 169.899 27.4989 170.859 27.7489C171.829 27.9989 172.659 28.3489 173.349 28.7989C174.039 29.2489 174.579 29.7889 174.959 30.4189C175.339 31.0489 175.529 31.7489 175.529 32.5189C175.529 32.9989 175.479 33.4389 175.379 33.8389C175.279 34.2389 175.109 34.6089 174.869 34.9689C174.629 35.3289 174.309 35.6689 173.919 35.9989C173.529 36.3289 173.049 36.6589 172.469 36.9989C173.059 37.1889 173.599 37.4389 174.099 37.7589C174.599 38.0789 175.029 38.4389 175.389 38.8589C175.749 39.2789 176.039 39.7389 176.239 40.2389C176.439 40.7389 176.539 41.2789 176.539 41.8589C176.539 42.6489 176.359 43.3889 175.999 44.0689C175.639 44.7489 175.119 45.3389 174.459 45.8489C173.799 46.3589 172.999 46.7589 172.059 47.0489C171.129 47.3389 170.089 47.4789 168.949 47.4789H159.059V27.3889V27.3789ZM163.999 36.0789H167.239C167.759 36.0789 168.229 35.9989 168.639 35.8389C169.049 35.6789 169.399 35.4489 169.679 35.1489C169.959 34.8489 170.179 34.5089 170.329 34.1089C170.479 33.7089 170.549 33.2689 170.549 32.7889C170.549 32.2689 170.459 31.7889 170.269 31.3489C170.079 30.9089 169.799 30.5389 169.409 30.2289C169.029 29.9189 168.539 29.6789 167.949 29.4989C167.359 29.3289 166.649 29.2389 165.829 29.2389H163.999V36.0689V36.0789ZM163.999 45.4089H166.719C167.509 45.4089 168.199 45.3189 168.789 45.1489C169.369 44.9789 169.859 44.7389 170.239 44.4289C170.619 44.1289 170.899 43.7689 171.089 43.3489C171.279 42.9289 171.359 42.4789 171.359 41.9789C171.359 41.4189 171.279 40.8889 171.109 40.4089C170.939 39.9289 170.669 39.5089 170.289 39.1589C169.909 38.8089 169.419 38.5389 168.799 38.3289C168.179 38.1289 167.429 38.0289 166.539 38.0289H163.999V45.3989V45.4089Z" fill="#006666"/>
<path d="M190.11 26.959L199.52 47.469H194.48L191.96 41.989H184.16L181.52 47.469H178.18L187.97 26.959H190.11ZM185.09 40.119H191.13L188.15 33.629L185.09 40.119Z" fill="#006666"/>
<path d="M201.979 27.3789H206.779L213.729 41.0989L220.578 27.3789H225.268V47.4689H220.349V34.3689L213.779 47.4689H211.889L205.099 34.2289V47.4689H201.979V27.3789Z" fill="#006666"/>
<path d="M230.43 27.3789H235.35V47.4689H230.43V27.3789Z" fill="#006666"/>
<path d="M33.259 47.8402C42.2612 47.8402 49.559 40.5425 49.559 31.5402C49.559 22.538 42.2612 15.2402 33.259 15.2402C24.2567 15.2402 16.959 22.538 16.959 31.5402C16.959 40.5425 24.2567 47.8402 33.259 47.8402Z" fill="white"/>
<path d="M32.5403 27.4199C32.4703 27.0399 32.4003 26.6699 32.2703 26.3099C32.0803 25.7699 31.7703 25.2599 31.4803 24.7599C31.3803 24.5799 31.3803 24.4699 31.5103 24.3499C32.0503 23.8199 32.6003 23.2999 33.1303 22.7699C33.1903 22.7199 33.2303 22.6899 33.2803 22.6799C33.3303 22.6799 33.3703 22.7199 33.4303 22.7699C33.9703 23.2999 34.5103 23.8299 35.0503 24.3499C35.1803 24.4799 35.1903 24.5799 35.0803 24.7599C34.7903 25.2599 34.4803 25.7699 34.2903 26.3099C34.1603 26.6699 34.0903 27.0399 34.0203 27.4199C35.5003 27.6299 36.7803 28.4399 37.6203 29.5999C38.4903 28.9599 39.3503 28.3099 40.2703 27.7599C41.5603 26.9899 42.9203 26.3399 44.2603 25.6599C45.2903 25.1399 46.3703 24.7099 47.3803 24.1499C48.5303 23.5099 49.5203 22.6599 50.3803 21.6499C51.1503 20.7399 51.7703 19.7299 52.2503 18.6399C52.7303 17.5399 53.0303 16.3999 53.1403 15.1999C53.1803 14.7699 53.2203 14.3299 53.2403 14.1099C53.2203 12.9499 53.0703 12.0199 52.8503 11.0899C52.3803 9.11994 51.4303 7.42994 50.0803 5.92994C49.1303 4.87994 48.0003 4.06994 46.7603 3.40994C45.9703 2.98994 45.1403 2.72994 44.2903 2.48994C43.0403 2.13994 41.7603 2.03994 40.4703 2.14994C39.6203 2.21994 38.7803 2.38994 37.9503 2.63994C36.4303 3.08994 35.0903 3.83994 33.8603 4.81994C33.7203 4.92994 33.5903 5.06994 33.4603 5.17994C33.4003 5.22994 33.3403 5.24994 33.2803 5.25994C33.2203 5.25994 33.1603 5.22994 33.1003 5.17994C32.9603 5.05994 32.8403 4.92994 32.7003 4.81994C31.4703 3.84994 30.1303 3.09994 28.6103 2.63994C27.7803 2.38994 26.9503 2.21994 26.0903 2.14994C24.8003 2.04994 23.5303 2.14994 22.2703 2.48994C21.4203 2.72994 20.5803 2.99994 19.8003 3.40994C18.5503 4.06994 17.4303 4.87994 16.4803 5.92994C15.1403 7.41994 14.1803 9.10994 13.7103 11.0899C13.4903 12.0199 13.3503 12.9499 13.3203 14.1099C13.3403 14.3399 13.3803 14.7699 13.4203 15.1999C13.5303 16.3899 13.8303 17.5399 14.3103 18.6399C14.7903 19.7399 15.4103 20.7399 16.1803 21.6499C17.0303 22.6599 18.0303 23.5099 19.1803 24.1499C20.1903 24.7099 21.2703 25.1399 22.3003 25.6599C23.6403 26.3399 25.0003 26.9899 26.2903 27.7599C27.2103 28.3099 28.0603 28.9599 28.9203 29.5899C29.7603 28.4299 31.0503 27.6199 32.5303 27.4199H32.5403Z" fill="url(#paint0_linear_3_739)"/>
<path d="M64.8796 31.5502C64.2596 29.6402 63.2696 27.9702 61.7896 26.5802C61.0896 25.9202 60.3596 25.3402 59.3596 24.7402C59.1496 24.6502 58.7596 24.4702 58.3596 24.2802C57.2696 23.7802 56.1296 23.4702 54.9396 23.3402C53.7496 23.2102 52.5696 23.2502 51.3896 23.4602C50.0896 23.7002 48.8596 24.1402 47.7296 24.8102C46.7396 25.4102 45.8296 26.1202 44.8596 26.7602C43.5996 27.5802 42.3596 28.4302 41.0496 29.1702C40.1196 29.6902 39.1296 30.1102 38.1396 30.5402C38.4396 31.2102 38.6096 31.9502 38.6096 32.7302C38.6096 33.4502 38.4696 34.1302 38.2096 34.7502C38.5796 34.8802 38.9396 35.0102 39.3196 35.0802C39.8896 35.1902 40.4796 35.1702 41.0596 35.1702C41.2696 35.1702 41.3596 35.2302 41.3996 35.4002C41.5896 36.1302 41.7696 36.8702 41.9596 37.6002C41.9796 37.6802 41.9796 37.7302 41.9596 37.7802C41.9296 37.8202 41.8796 37.8402 41.8096 37.8602C41.0796 38.0602 40.3596 38.2702 39.6296 38.4802C39.4596 38.5302 39.3596 38.4802 39.2596 38.3002C38.9696 37.8002 38.6796 37.2802 38.3096 36.8402C38.0596 36.5502 37.7596 36.2902 37.4596 36.0402C36.5796 37.1602 35.2796 37.9202 33.7896 38.0702C33.9096 39.1502 34.0496 40.2202 34.0596 41.3002C34.0796 42.8002 33.9696 44.3002 33.8896 45.8002C33.8296 46.9502 33.6696 48.1002 33.6496 49.2602C33.6296 50.5702 33.8696 51.8602 34.3196 53.1002C34.7296 54.2302 35.2896 55.2602 35.9996 56.2302C36.7096 57.2002 37.5496 58.0302 38.5296 58.7202C38.8896 58.9702 39.2396 59.2202 39.4296 59.3502C40.4496 59.9102 41.3296 60.2502 42.2396 60.5202C44.1796 61.1002 46.1196 61.1102 48.0896 60.6902C49.4796 60.3902 50.7396 59.8202 51.9296 59.0702C52.6796 58.6002 53.3296 58.0102 53.9596 57.3902C54.8896 56.4802 55.6096 55.4202 56.1596 54.2502C56.5296 53.4802 56.7896 52.6702 56.9896 51.8202C57.3596 50.2802 57.3696 48.7402 57.1396 47.1802C57.1096 47.0002 57.0596 46.8302 57.0296 46.6502C57.0196 46.5702 57.0296 46.5102 57.0496 46.4602C57.0496 46.4602 57.1296 46.3702 57.2096 46.3402C57.3796 46.2802 57.5596 46.2402 57.7296 46.1702C59.1896 45.5902 60.5096 44.8002 61.6596 43.7102C62.2896 43.1102 62.8496 42.4802 63.3396 41.7702C64.0696 40.7102 64.6296 39.5502 64.9496 38.2902C65.1696 37.4302 65.3496 36.5702 65.3796 35.6902C65.4296 34.2802 65.2896 32.9002 64.8496 31.5502H64.8796Z" fill="url(#paint1_linear_3_739)"/>
<path d="M29.0395 36.0302C28.7395 36.2802 28.4495 36.5402 28.1995 36.8302C27.8195 37.2702 27.5395 37.7902 27.2495 38.2902C27.1495 38.4702 27.0495 38.5202 26.8795 38.4702C26.1495 38.2702 25.4295 38.0502 24.6995 37.8502C24.6195 37.8302 24.5795 37.8002 24.5495 37.7702C24.5395 37.7302 24.5295 37.6702 24.5495 37.5902C24.7395 36.8602 24.9295 36.1302 25.1095 35.3902C25.1495 35.2202 25.2495 35.1502 25.4495 35.1602C26.0295 35.1602 26.6195 35.1802 27.1895 35.0702C27.5695 35.0002 27.9295 34.8802 28.2995 34.7502C28.0495 34.1302 27.8995 33.4502 27.8995 32.7402C27.8995 31.9602 28.0695 31.2202 28.3695 30.5502C27.3895 30.1102 26.3895 29.7002 25.4595 29.1702C24.1495 28.4402 22.9095 27.5902 21.6495 26.7602C20.6795 26.1302 19.7695 25.4102 18.7795 24.8102C17.6595 24.1302 16.4195 23.6902 15.1195 23.4602C13.9395 23.2502 12.7595 23.2102 11.5695 23.3402C10.3795 23.4702 9.23948 23.7802 8.14948 24.2802C7.75948 24.4602 7.35948 24.6402 7.14948 24.7402C6.14948 25.3402 5.41948 25.9302 4.71948 26.5802C3.24948 27.9702 2.24948 29.6402 1.62948 31.5502C1.18948 32.9002 1.04947 34.2802 1.09947 35.6902C1.12947 36.5802 1.30948 37.4402 1.52948 38.2902C1.84948 39.5502 2.39948 40.7102 3.13948 41.7702C3.61948 42.4702 4.18948 43.1102 4.81948 43.7102C5.96948 44.8002 7.28948 45.5902 8.74948 46.1702C8.91948 46.2402 9.09947 46.2802 9.26947 46.3402C9.33947 46.3702 9.38948 46.4102 9.42948 46.4502C9.45948 46.5002 9.46947 46.5602 9.44947 46.6402C9.41947 46.8202 9.35947 46.9902 9.33947 47.1702C9.10947 48.7202 9.12947 50.2602 9.48947 51.8102C9.68947 52.6502 9.95948 53.4602 10.3195 54.2402C10.8695 55.4102 11.5895 56.4702 12.5195 57.3802C13.1495 58.0002 13.7995 58.5902 14.5495 59.0602C15.7395 59.8102 17.0095 60.3802 18.3895 60.6802C20.3495 61.1002 22.2995 61.0802 24.2395 60.5102C25.1595 60.2402 26.0295 59.9002 27.0495 59.3402C27.2395 59.2102 27.5895 58.9602 27.9495 58.7102C28.9295 58.0202 29.7695 57.1902 30.4795 56.2202C31.1895 55.2602 31.7495 54.2202 32.1595 53.0902C32.6095 51.8502 32.8495 50.5602 32.8295 49.2502C32.8095 48.1002 32.6495 46.9502 32.5895 45.7902C32.5095 44.2902 32.3995 42.7902 32.4195 41.2902C32.4395 40.2202 32.5795 39.1402 32.6895 38.0702C31.1995 37.9202 29.8895 37.1502 29.0195 36.0302H29.0395Z" fill="url(#paint2_linear_3_739)"/>
<path d="M33.2596 28.5703C30.9596 28.5703 29.0996 30.4303 29.0996 32.7303C29.0996 35.0303 30.9596 36.8903 33.2596 36.8903C35.5596 36.8903 37.4196 35.0303 37.4196 32.7303C37.4196 30.4303 35.5596 28.5703 33.2596 28.5703Z" fill="#EE3C23"/>
<path d="M37.6197 29.6094C38.3697 28.9894 39.1097 28.3594 39.9197 27.7894C40.7297 27.2295 41.5797 26.7394 42.4197 26.2494C43.2697 25.7694 44.1097 25.2795 44.9897 24.8295C45.8597 24.3794 46.7297 23.9594 47.4897 23.4494C49.0097 22.4095 50.2397 20.9694 51.0797 19.3394C51.4997 18.5194 51.8197 17.6595 52.0197 16.7894C52.1197 16.3495 52.1997 15.9094 52.2397 15.4594L52.2697 15.1294L52.2997 14.7594L52.3497 14.0294V14.1294C52.2997 13.0394 52.1197 11.9794 51.8197 10.9594C51.5197 9.94945 51.0597 8.99945 50.4697 8.12945C50.1797 7.68945 49.8497 7.26945 49.4997 6.87945C49.1497 6.47945 48.7897 6.12945 48.3797 5.78945C47.9797 5.45945 47.5497 5.15945 47.0997 4.87945C46.8697 4.73945 46.6397 4.60945 46.4097 4.48945C46.1697 4.35945 45.9597 4.25945 45.7197 4.15945C45.2497 3.96945 44.7497 3.80945 44.2197 3.65945C43.9397 3.57945 43.7097 3.52945 43.4597 3.46945C43.2097 3.41945 42.9597 3.37945 42.6997 3.33945C41.6897 3.21945 40.6297 3.24945 39.6197 3.43945C39.1097 3.52945 38.5897 3.66945 38.0997 3.82945C37.6097 3.98945 37.1297 4.17945 36.6697 4.41945C36.2097 4.64945 35.7597 4.91945 35.3297 5.21945C35.1097 5.36945 34.8997 5.51945 34.6897 5.68945C34.5797 5.76945 34.4897 5.85945 34.3897 5.94945L34.2397 6.07945C34.2397 6.07945 34.1797 6.12945 34.1197 6.16945C34.0597 6.20945 33.9897 6.25945 33.9097 6.29945C33.8297 6.33945 33.7397 6.37945 33.6397 6.40945C33.5897 6.41945 33.5397 6.43945 33.4797 6.43945C33.4197 6.43945 33.3997 6.44945 33.2697 6.45945C33.1297 6.45945 33.1197 6.45945 33.0597 6.43945C33.0097 6.43945 32.9597 6.41945 32.8997 6.40945C32.7997 6.37945 32.7097 6.34945 32.6297 6.29945C32.5497 6.25945 32.4797 6.21945 32.4197 6.16945C32.3597 6.12945 32.2997 6.06945 32.2997 6.07945L32.1497 5.94945C32.0497 5.85945 31.9597 5.76945 31.8497 5.68945C31.6397 5.52945 31.4297 5.36945 31.2097 5.21945C30.7797 4.91945 30.3297 4.65945 29.8697 4.41945C29.4097 4.18945 28.9297 3.98945 28.4397 3.82945C27.9497 3.66945 27.4197 3.53945 26.9197 3.43945C25.9097 3.24945 24.8497 3.21945 23.8397 3.33945C23.5897 3.36945 23.3297 3.40945 23.0797 3.46945C22.8297 3.51945 22.5997 3.57945 22.3197 3.65945C21.7897 3.80945 21.2897 3.96945 20.8197 4.15945C20.5797 4.25945 20.3797 4.35945 20.1297 4.48945C19.8897 4.61945 19.6597 4.74945 19.4397 4.87945C18.9897 5.15945 18.5597 5.45945 18.1597 5.78945C17.7597 6.11945 17.3897 6.46945 17.0397 6.86945C16.6897 7.26945 16.3597 7.68945 16.0697 8.11945C15.4797 8.98945 15.0297 9.93945 14.7197 10.9494C14.4197 11.9794 14.2297 13.0394 14.1897 14.1194V14.0194L14.2397 14.7494L14.2697 15.1094L14.2997 15.4394C14.3397 15.8894 14.4197 16.3294 14.5197 16.7594C14.7197 17.6294 15.0397 18.4895 15.4597 19.3095C16.2897 20.9394 17.5197 22.3794 19.0397 23.4194C19.7997 23.9294 20.6697 24.3594 21.5397 24.7994C22.4197 25.2494 23.2597 25.7394 24.1097 26.2094C24.9597 26.6994 25.7997 27.1894 26.6097 27.7494C27.4097 28.3194 28.1597 28.9394 28.9097 29.5694C28.0897 29.0494 27.2797 28.4994 26.4397 28.0394C25.5897 27.5795 24.7197 27.1594 23.8297 26.7694L22.4997 26.1794C22.0497 25.9794 21.6297 25.7794 21.1797 25.5994C20.2897 25.2194 19.3697 24.8694 18.4697 24.3594C17.5797 23.8594 16.7597 23.2094 16.0497 22.4694C15.3297 21.7395 14.7097 20.9194 14.1797 20.0294C13.6597 19.1494 13.2297 18.1994 12.9297 17.1894C12.7897 16.6894 12.6697 16.1694 12.5997 15.6494L12.5497 15.2594L12.5097 14.8994L12.4297 14.1794V14.1494V14.0794C12.4297 12.8594 12.5797 11.6294 12.8797 10.4294C13.1897 9.21945 13.6897 8.03945 14.3597 6.98945C14.6897 6.45945 15.0597 5.94945 15.4597 5.47945C15.8497 4.99945 16.3097 4.52945 16.7797 4.11945C17.2597 3.69945 17.7697 3.32945 18.2897 2.98945C18.5497 2.81945 18.8197 2.65945 19.0897 2.50945C19.3497 2.35945 19.6597 2.19945 19.9497 2.06945C20.5397 1.80945 21.1297 1.60945 21.7097 1.42945C21.9897 1.33945 22.3097 1.25945 22.6197 1.18945C22.9297 1.11945 23.2497 1.05945 23.5697 1.01945C24.8397 0.849449 26.1097 0.879449 27.3697 1.08945C27.9997 1.19945 28.5997 1.34945 29.1997 1.53945C29.8097 1.72945 30.3997 1.96945 30.9697 2.25945C31.5397 2.53945 32.0797 2.85945 32.5997 3.21945C32.8597 3.39945 33.1097 3.57945 33.3597 3.76945C33.4897 3.85945 33.5997 3.96945 33.7097 4.06945L33.8797 4.22945C33.8797 4.22945 33.8797 4.22945 33.8497 4.19945C33.8197 4.17945 33.7797 4.14945 33.7297 4.12945C33.6797 4.10945 33.6197 4.07945 33.5597 4.05945C33.5297 4.05945 33.4897 4.03945 33.4597 4.03945C33.4197 4.03945 33.4197 4.03945 33.2997 4.02945C33.1797 4.02945 33.1797 4.02945 33.1397 4.03945C33.0997 4.03945 33.0697 4.04945 33.0397 4.05945C32.9697 4.07945 32.9097 4.09945 32.8697 4.12945C32.8197 4.14945 32.7797 4.17945 32.7497 4.19945C32.7197 4.21945 32.6897 4.24945 32.7197 4.22945L32.8897 4.06945C33.0097 3.96945 33.1197 3.85945 33.2397 3.76945C33.4897 3.57945 33.7397 3.39945 33.9997 3.21945C34.5197 2.86945 35.0597 2.53945 35.6297 2.25945C36.1997 1.97945 36.7897 1.73945 37.3997 1.53945C37.9997 1.34945 38.5997 1.19945 39.2297 1.08945C40.4897 0.869449 41.7597 0.849449 43.0297 1.01945C43.3497 1.05945 43.6597 1.11945 43.9797 1.18945C44.2897 1.25945 44.6097 1.34945 44.8897 1.42945C45.4597 1.59945 46.0597 1.80945 46.6497 2.06945C46.9397 2.19945 47.2497 2.35945 47.5097 2.50945C47.7797 2.65945 48.0397 2.81945 48.3097 2.98945C48.8297 3.32945 49.3397 3.69945 49.8197 4.11945C50.2997 4.52945 50.7497 4.99945 51.1397 5.46945C51.5397 5.93945 51.9097 6.44945 52.2397 6.97945C52.9097 8.02945 53.4097 9.20945 53.7197 10.4194C54.0197 11.6094 54.1697 12.8494 54.1697 14.0694V14.1394V14.1694L54.0897 14.8894L54.0497 15.2494L53.9997 15.6394C53.9297 16.1594 53.8097 16.6694 53.6697 17.1794C53.3697 18.1894 52.9397 19.1395 52.4197 20.0194C51.8897 20.9094 51.2597 21.7294 50.5497 22.4594C49.8297 23.1994 49.0197 23.8394 48.1197 24.3394C47.2197 24.8394 46.2997 25.1995 45.4097 25.5795C44.9597 25.7695 44.5297 25.9594 44.0797 26.1594L42.7497 26.7494C41.8697 27.1494 40.9897 27.5594 40.1397 28.0294C39.2897 28.4894 38.4897 29.0494 37.6697 29.5694L37.6197 29.6094Z" fill="#006666"/>
<path d="M33.8095 38.07C33.9795 39.03 34.1495 39.99 34.2395 40.97C34.3195 41.95 34.3295 42.93 34.3295 43.91C34.3195 44.89 34.3295 45.86 34.2695 46.85C34.2195 47.83 34.1595 48.79 34.2195 49.71C34.3595 51.54 34.9995 53.34 35.9895 54.87C36.4895 55.64 37.0695 56.35 37.7295 56.96C38.0595 57.27 38.3995 57.56 38.7695 57.82L39.0495 58.01L39.3495 58.22L39.9595 58.63L39.8695 58.58C40.8295 59.08 41.8395 59.46 42.8895 59.7C43.9195 59.94 44.9695 60.01 46.0195 59.94C46.5495 59.9 47.0695 59.83 47.5895 59.73C48.1095 59.62 48.5995 59.49 49.0895 59.3C49.5795 59.12 50.0495 58.89 50.5195 58.64C50.7495 58.51 50.9795 58.38 51.2095 58.23C51.4395 58.08 51.6295 57.96 51.8395 57.8C52.2395 57.49 52.6295 57.13 53.0195 56.75C53.2195 56.55 53.3895 56.38 53.5595 56.18C53.7295 55.99 53.8895 55.79 54.0495 55.59C54.6595 54.77 55.1595 53.84 55.4995 52.87C55.6695 52.38 55.8095 51.87 55.9195 51.36C56.0295 50.86 56.0995 50.35 56.1295 49.83C56.1595 49.31 56.1495 48.79 56.1095 48.27C56.0895 48.01 56.0595 47.75 56.0195 47.48C56.0095 47.35 55.9695 47.22 55.9395 47.09L55.8995 46.9C55.8995 46.9 55.8795 46.82 55.8795 46.75C55.8795 46.68 55.8695 46.6 55.8795 46.51C55.8795 46.33 55.9395 46.11 56.0395 45.92L56.0695 45.87L56.0895 45.84C56.2194 45.63 56.3695 45.5 56.5295 45.39C56.6095 45.34 56.6795 45.3 56.7495 45.27C56.8095 45.24 56.8895 45.21 56.8895 45.21L57.0795 45.15C57.2095 45.11 57.3295 45.08 57.4595 45.02C57.7095 44.92 57.9495 44.81 58.1795 44.7C58.6495 44.47 59.1095 44.22 59.5395 43.93C59.9695 43.65 60.3795 43.33 60.7595 42.98C61.1395 42.63 61.5195 42.25 61.8495 41.86C62.5195 41.08 63.0795 40.18 63.4695 39.24C63.5695 39 63.6595 38.76 63.7395 38.52C63.8195 38.27 63.8795 38.04 63.9495 37.77C64.0895 37.24 64.1995 36.72 64.2595 36.22C64.2895 35.96 64.3095 35.74 64.3195 35.46C64.3195 35.19 64.3295 34.93 64.3195 34.66C64.2995 34.13 64.2595 33.61 64.1695 33.1C64.0795 32.58 63.9595 32.1 63.7895 31.59C63.6195 31.09 63.4195 30.6 63.1895 30.12C62.7295 29.18 62.1295 28.31 61.4095 27.54C60.6695 26.76 59.8395 26.08 58.9195 25.5L59.0095 25.55L58.3495 25.23L58.0195 25.07L57.7195 24.93C57.3095 24.75 56.8895 24.59 56.4595 24.46C55.5995 24.2 54.6995 24.05 53.7795 24.01C51.9495 23.92 50.0895 24.27 48.4295 25.06C47.6095 25.46 46.8095 26.01 45.9895 26.54C45.1595 27.08 44.3195 27.56 43.4795 28.06C42.6395 28.55 41.7895 29.04 40.8995 29.46C40.0095 29.87 39.0895 30.21 38.1795 30.54C39.0395 30.09 39.9195 29.66 40.7395 29.16C41.5595 28.66 42.3595 28.1 43.1395 27.54L44.3195 26.68C44.7195 26.39 45.0995 26.12 45.4895 25.82C46.2595 25.23 47.0295 24.62 47.9095 24.09C48.7895 23.57 49.7595 23.18 50.7495 22.93C51.7395 22.67 52.7695 22.54 53.7995 22.53C54.8295 22.52 55.8695 22.62 56.8895 22.86C57.3995 22.99 57.8995 23.15 58.3895 23.34L58.7495 23.49L59.0795 23.63L59.7495 23.92H59.7795L59.8395 23.97C60.8995 24.57 61.8895 25.32 62.7795 26.18C63.6795 27.05 64.4495 28.07 65.0295 29.18C65.3195 29.73 65.5795 30.3 65.7895 30.89C66.0095 31.47 66.1895 32.1 66.3095 32.71C66.4295 33.33 66.4995 33.96 66.5295 34.58C66.5395 34.89 66.5495 35.2 66.5495 35.51C66.5495 35.81 66.5295 36.16 66.4995 36.48C66.4295 37.12 66.3095 37.74 66.1695 38.32C66.1095 38.6 66.0195 38.93 65.9295 39.23C65.8295 39.54 65.7295 39.84 65.6095 40.13C65.1195 41.32 64.4695 42.4 63.6495 43.39C63.2395 43.88 62.8095 44.32 62.3495 44.75C61.8795 45.18 61.3795 45.57 60.8495 45.93C60.3195 46.28 59.7695 46.59 59.2095 46.87C58.9295 47.01 58.6395 47.13 58.3595 47.25C58.2195 47.31 58.0695 47.35 57.9195 47.41L57.6995 47.48C57.6995 47.48 57.6995 47.48 57.7395 47.46C57.7695 47.44 57.8095 47.42 57.8595 47.39C57.9595 47.32 58.0495 47.24 58.1495 47.09L58.1995 47.01C58.2595 46.89 58.2995 46.74 58.2995 46.63C58.2995 46.58 58.2995 46.53 58.2995 46.49C58.2995 46.45 58.2895 46.41 58.2995 46.45L58.3495 46.68C58.3795 46.83 58.4195 46.98 58.4395 47.14C58.4795 47.45 58.5195 47.76 58.5395 48.07C58.5895 48.69 58.5995 49.33 58.5595 49.96C58.5195 50.59 58.4295 51.23 58.2995 51.85C58.1695 52.47 57.9895 53.06 57.7795 53.66C57.3395 54.86 56.7295 55.97 55.9495 56.99C55.7495 57.24 55.5495 57.49 55.3295 57.72C55.1195 57.95 54.8795 58.19 54.6595 58.39C54.2195 58.8 53.7495 59.22 53.2295 59.6C52.9695 59.79 52.6795 59.98 52.4195 60.13C52.1495 60.29 51.8795 60.44 51.6095 60.58C51.0595 60.86 50.4795 61.12 49.8795 61.32C49.2895 61.53 48.6495 61.69 48.0495 61.79C47.4395 61.9 46.8195 61.97 46.1895 61.99C44.9395 62.05 43.6695 61.89 42.4695 61.55C41.2895 61.21 40.1395 60.73 39.0795 60.12L39.0195 60.08L38.9995 60.06L38.4195 59.63L38.1295 59.41L37.8195 59.17C37.4095 58.85 37.0195 58.49 36.6495 58.12C35.9295 57.36 35.3195 56.51 34.8095 55.62C34.2995 54.72 33.9095 53.76 33.6295 52.78C33.3495 51.79 33.1995 50.76 33.2095 49.73C33.2195 48.7 33.3695 47.72 33.4895 46.76C33.5495 46.28 33.5995 45.81 33.6495 45.32L33.7995 43.87C33.8995 42.9 33.9695 41.94 33.9895 40.97C34.0095 40 33.9295 39.03 33.8895 38.06L33.8095 38.07Z" fill="#006666"/>
<path d="M28.3794 30.5392C27.4694 30.1992 26.5494 29.8692 25.6594 29.4592C24.7694 29.0392 23.9194 28.5492 23.0794 28.0592C22.2394 27.5592 21.3994 27.0792 20.5694 26.5392C19.7494 26.0092 18.9494 25.4692 18.1294 25.0592C16.4694 24.2592 14.6094 23.9192 12.7794 23.9992C11.8594 24.0392 10.9594 24.1892 10.0994 24.4492C9.66937 24.5792 9.24937 24.7292 8.83937 24.9192L8.53938 25.0592L8.20937 25.2192L7.54938 25.5392L7.63937 25.4892C6.71937 26.0692 5.88938 26.7492 5.14938 27.5292C4.42938 28.2992 3.82937 29.1692 3.36937 30.1092C3.13937 30.5792 2.92937 31.0692 2.76937 31.5792C2.59937 32.0892 2.46937 32.5692 2.38937 33.0892C2.29937 33.5992 2.25938 34.1192 2.23938 34.6492C2.23938 34.9092 2.23938 35.1792 2.23938 35.4492C2.23938 35.7292 2.26937 35.9492 2.29937 36.2092C2.36937 36.7092 2.47937 37.2292 2.61937 37.7592C2.68937 38.0392 2.75937 38.2692 2.83937 38.5092C2.91937 38.7492 3.00938 38.9892 3.10938 39.2292C3.50938 40.1692 4.06938 41.0692 4.72938 41.8492C5.05938 42.2392 5.43938 42.6192 5.82938 42.9692C6.20938 43.3192 6.61938 43.6292 7.04938 43.9192C7.47938 44.2092 7.93938 44.4592 8.40938 44.6892C8.64938 44.7992 8.88937 44.9092 9.12937 45.0092C9.24937 45.0692 9.37938 45.0992 9.50938 45.1392L9.69937 45.1992C9.69937 45.1992 9.77937 45.2292 9.83937 45.2492C9.90937 45.2792 9.97938 45.3192 10.0494 45.3692C10.1294 45.4192 10.1994 45.4792 10.2794 45.5592C10.3194 45.5992 10.3494 45.6392 10.3894 45.6792C10.4294 45.7292 10.4394 45.7392 10.5094 45.8592C10.5794 45.9792 10.5794 45.9992 10.5994 46.0492C10.6194 46.0992 10.6394 46.1492 10.6494 46.1992C10.6794 46.2992 10.6894 46.3992 10.6994 46.4892C10.6994 46.5792 10.6994 46.6592 10.6994 46.7392C10.6994 46.8092 10.6794 46.8892 10.6794 46.8892L10.6394 47.0792C10.6094 47.2092 10.5794 47.3392 10.5594 47.4692C10.5194 47.7292 10.4894 47.9892 10.4694 48.2592C10.4294 48.7792 10.4194 49.2992 10.4494 49.8192C10.4794 50.3392 10.5494 50.8492 10.6594 51.3492C10.7694 51.8592 10.9094 52.3792 11.0794 52.8592C11.4194 53.8292 11.9194 54.7592 12.5294 55.5792C12.6794 55.7792 12.8494 55.9792 13.0194 56.1692C13.1894 56.3592 13.3594 56.5292 13.5594 56.7392C13.9494 57.1292 14.3394 57.4792 14.7394 57.7892C14.9494 57.9492 15.1294 58.0792 15.3694 58.2192C15.5994 58.3592 15.8294 58.4992 16.0594 58.6192C16.5194 58.8692 16.9994 59.0892 17.4794 59.2792C17.9694 59.4692 18.4494 59.5992 18.9794 59.7092C19.4994 59.8192 20.0194 59.8892 20.5494 59.9292C21.5994 59.9992 22.6494 59.9292 23.6794 59.6892C24.7194 59.4392 25.7294 59.0692 26.6894 58.5692L26.5994 58.6192L27.2094 58.2092L27.5094 58.0092L27.7894 57.8192C28.1494 57.5592 28.4994 57.2692 28.8294 56.9692C29.4894 56.3592 30.0694 55.6492 30.5694 54.8792C31.5694 53.3492 32.2094 51.5592 32.3494 49.7192C32.4094 48.7992 32.3494 47.8392 32.2994 46.8592C32.2494 45.8692 32.2494 44.8992 32.2394 43.9292C32.2394 42.9492 32.2394 41.9692 32.3294 40.9892C32.4194 40.0092 32.5894 39.0492 32.7594 38.0892C32.7194 39.0592 32.6394 40.0392 32.6594 40.9992C32.6794 41.9592 32.7594 42.9292 32.8594 43.8992L33.0094 45.3492C33.0594 45.8392 33.0994 46.3092 33.1694 46.7892C33.2894 47.7492 33.4394 48.7292 33.4494 49.7592C33.4494 50.7892 33.3094 51.8192 33.0294 52.7992C32.7494 53.7892 32.3494 54.7392 31.8494 55.6392C31.3394 56.5392 30.7394 57.3792 30.0094 58.1392C29.6494 58.5192 29.2594 58.8692 28.8394 59.1892L28.5294 59.4292L28.2394 59.6492L27.6594 60.0792L27.6394 60.0992L27.5794 60.1392C26.5294 60.7492 25.3794 61.2392 24.1894 61.5692C22.9894 61.9092 21.7194 62.0592 20.4694 62.0092C19.8394 61.9892 19.2194 61.9192 18.6094 61.8092C17.9994 61.7092 17.3694 61.5492 16.7694 61.3392C16.1694 61.1292 15.5894 60.8792 15.0394 60.5892C14.7594 60.4492 14.4894 60.2992 14.2294 60.1392C13.9694 59.9892 13.6794 59.7992 13.4194 59.6092C12.8994 59.2292 12.4294 58.8092 11.9894 58.3992C11.7794 58.1992 11.5394 57.9692 11.3294 57.7292C11.1094 57.4892 10.9094 57.2492 10.7094 56.9992C9.92937 55.9792 9.31937 54.8692 8.87937 53.6692C8.65937 53.0692 8.48938 52.4792 8.35938 51.8592C8.21937 51.2392 8.13937 50.5992 8.09937 49.9692C8.05937 49.3392 8.06938 48.6992 8.11938 48.0792C8.13938 47.7692 8.17938 47.4592 8.21938 47.1492C8.23938 46.9992 8.27937 46.8392 8.30937 46.6892L8.35938 46.4592C8.35938 46.4592 8.35938 46.4592 8.35938 46.4992C8.35938 46.5392 8.35938 46.5792 8.35938 46.6392C8.35938 46.6892 8.36937 46.7592 8.38937 46.8192C8.38937 46.8492 8.40937 46.8892 8.41937 46.9192C8.43937 46.9592 8.42937 46.9592 8.48937 47.0692C8.54937 47.1692 8.54938 47.1692 8.57938 47.1992C8.59938 47.2292 8.62938 47.2492 8.64938 47.2792C8.69938 47.3292 8.74938 47.3692 8.78938 47.3992C8.83938 47.4292 8.87938 47.4492 8.90938 47.4692C8.93938 47.4792 8.98937 47.4992 8.94937 47.4892L8.72938 47.4192C8.57938 47.3692 8.42938 47.3292 8.28938 47.2592C7.99938 47.1392 7.71938 47.0092 7.43938 46.8792C6.87938 46.6092 6.31938 46.2992 5.79938 45.9392C5.26938 45.5892 4.76938 45.1892 4.29938 44.7592C3.82938 44.3292 3.40937 43.8892 2.99937 43.3992C2.17937 42.4192 1.52938 41.3292 1.03938 40.1392C0.919375 39.8392 0.809376 39.5392 0.719376 39.2392C0.619376 38.9392 0.539374 38.6092 0.479374 38.3292C0.339374 37.7492 0.219374 37.1292 0.159374 36.4892C0.129374 36.1792 0.109375 35.8192 0.109375 35.5292C0.109375 35.2192 0.109375 34.9092 0.129375 34.5992C0.159375 33.9792 0.229375 33.3492 0.359375 32.7292C0.479375 32.1092 0.659373 31.4892 0.869373 30.9092C1.07937 30.3292 1.33938 29.7592 1.62938 29.1992C2.20938 28.0892 2.97938 27.0692 3.87938 26.1992C4.76938 25.3492 5.75937 24.5992 6.81937 23.9892L6.87937 23.9492H6.90938L7.57938 23.6492L7.90938 23.5092L8.26937 23.3592C8.75937 23.1692 9.25937 23.0092 9.76937 22.8792C10.7894 22.6392 11.8294 22.5292 12.8594 22.5492C13.8894 22.5592 14.9194 22.6992 15.9094 22.9492C16.8994 23.1992 17.8694 23.5892 18.7494 24.1092C19.6394 24.6392 20.3994 25.2492 21.1694 25.8392C21.5594 26.1392 21.9394 26.4092 22.3394 26.6992L23.5194 27.5592C24.3094 28.1292 25.0994 28.6792 25.9194 29.1792C26.7394 29.6792 27.6194 30.0992 28.4894 30.5592L28.3794 30.5392Z" fill="#006666"/>
<defs>
<linearGradient id="paint0_linear_3_739" x1="33.3303" y1="11.8999" x2="33.0703" y2="23.6999" gradientUnits="userSpaceOnUse">
<stop stop-color="#FCB912"/>
<stop offset="1" stop-color="#F7991C"/>
</linearGradient>
<linearGradient id="paint1_linear_3_739" x1="51.6752" y1="43.5204" x2="41.5678" y2="37.4061" gradientUnits="userSpaceOnUse">
<stop stop-color="#FCB912"/>
<stop offset="1" stop-color="#F7991C"/>
</linearGradient>
<linearGradient id="paint2_linear_3_739" x1="14.8529" y1="42.9764" x2="24.9516" y2="36.8671" gradientUnits="userSpaceOnUse">
<stop stop-color="#FCB912"/>
<stop offset="1" stop-color="#F7991C"/>
</linearGradient>
</defs>
</svg>
