<svg width="237" height="66" viewBox="0 0 237 66" fill="none" xmlns="http://www.w3.org/2000/svg">
<path d="M126.27 59.199C126.27 60.059 126.4 60.829 126.66 61.509C126.92 62.199 127.28 62.769 127.73 63.239C128.18 63.709 128.72 64.069 129.34 64.319C129.96 64.569 130.63 64.699 131.35 64.699C131.78 64.699 132.19 64.619 132.6 64.449C133 64.279 133.38 64.059 133.72 63.789C134.06 63.519 134.37 63.219 134.64 62.879C134.91 62.539 135.13 62.199 135.31 61.859L136.18 62.409C135.93 62.819 135.63 63.219 135.29 63.599C134.95 63.979 134.55 64.319 134.09 64.609C133.64 64.899 133.12 65.129 132.55 65.309C131.98 65.489 131.34 65.569 130.63 65.569C129.61 65.569 128.69 65.399 127.85 65.059C127.01 64.719 126.3 64.259 125.71 63.669C125.12 63.079 124.66 62.409 124.34 61.629C124.02 60.859 123.85 60.039 123.85 59.169C123.85 58.299 124.02 57.479 124.35 56.699C124.68 55.919 125.15 55.229 125.76 54.639C126.37 54.049 127.09 53.579 127.93 53.229C128.77 52.879 129.71 52.709 130.74 52.709C131.4 52.709 132 52.799 132.55 52.969C133.1 53.149 133.6 53.379 134.06 53.669C134.51 53.959 134.92 54.299 135.28 54.679C135.64 55.059 135.94 55.459 136.19 55.869L135.3 56.459C134.78 55.459 134.2 54.729 133.57 54.269C132.94 53.809 132.21 53.579 131.38 53.579C130.67 53.579 130.01 53.709 129.39 53.959C128.77 54.219 128.23 54.589 127.77 55.069C127.31 55.549 126.95 56.139 126.69 56.829C126.43 57.519 126.29 58.299 126.29 59.159L126.27 59.199Z" fill="url(#paint0_linear_3_2326)"/>
<path d="M138.73 53.0098H140.8V64.5098H146.99V65.2998H138.73V53.0098Z" fill="url(#paint1_linear_3_2326)"/>
<path d="M148.699 53.0098H150.769V65.2998H148.699V53.0098Z" fill="url(#paint2_linear_3_2326)"/>
<path d="M153.859 53.0098H155.019L163.079 61.9998H163.169V53.0098H164.079V65.5898H163.599L154.879 55.5898H154.799V65.2998H153.869V53.0098H153.859Z" fill="url(#paint3_linear_3_2326)"/>
<path d="M167.139 53.0098H169.209V65.2998H167.139V53.0098Z" fill="url(#paint4_linear_3_2326)"/>
<path d="M174.19 59.199C174.19 60.059 174.32 60.829 174.58 61.509C174.84 62.199 175.2 62.769 175.65 63.239C176.1 63.709 176.64 64.069 177.26 64.319C177.88 64.569 178.55 64.699 179.27 64.699C179.7 64.699 180.11 64.619 180.52 64.449C180.92 64.279 181.3 64.059 181.64 63.789C181.98 63.519 182.29 63.219 182.56 62.879C182.83 62.539 183.05 62.199 183.23 61.859L184.1 62.409C183.85 62.819 183.55 63.219 183.21 63.599C182.87 63.979 182.47 64.319 182.01 64.609C181.56 64.899 181.04 65.129 180.47 65.309C179.9 65.489 179.26 65.569 178.55 65.569C177.53 65.569 176.61 65.399 175.77 65.059C174.93 64.719 174.22 64.259 173.63 63.669C173.04 63.079 172.58 62.409 172.26 61.629C171.94 60.859 171.77 60.039 171.77 59.169C171.77 58.299 171.94 57.479 172.27 56.699C172.6 55.919 173.07 55.229 173.68 54.639C174.29 54.049 175.01 53.579 175.85 53.229C176.69 52.879 177.63 52.709 178.66 52.709C179.32 52.709 179.92 52.799 180.47 52.969C181.02 53.149 181.52 53.379 181.98 53.669C182.43 53.959 182.84 54.299 183.2 54.679C183.56 55.059 183.86 55.459 184.11 55.869L183.22 56.459C182.7 55.459 182.12 54.729 181.49 54.269C180.86 53.809 180.13 53.579 179.3 53.579C178.59 53.579 177.93 53.709 177.31 53.959C176.69 54.219 176.15 54.589 175.69 55.069C175.23 55.549 174.87 56.139 174.61 56.829C174.35 57.519 174.21 58.299 174.21 59.159L174.19 59.199Z" fill="url(#paint5_linear_3_2326)"/>
<path d="M78.3789 27.3789H83.3389V34.9389L92.2489 27.3789H96.0789L86.0289 35.8789L98.7589 47.4689H92.7989L83.3489 38.8689V47.4689H78.3889V27.3789H78.3789Z" fill="white"/>
<path d="M109.668 26.959L119.078 47.469H114.038L111.518 41.989H103.718L101.078 47.469H97.7383L107.528 26.959H109.668ZM104.648 40.119H110.688L107.708 33.629L104.648 40.119Z" fill="white"/>
<path d="M136.918 27.3789V29.0889H129.968V47.4689H125.048V29.0889H118.078V27.3789H136.918Z" fill="white"/>
<path d="M147.86 26.959L157.27 47.469H152.23L149.71 41.989H141.91L139.27 47.469H135.93L145.72 26.959H147.86ZM142.84 40.119H148.88L145.9 33.629L142.84 40.119Z" fill="white"/>
<path d="M159.719 27.3789H168.339C169.499 27.3789 170.559 27.4989 171.519 27.7489C172.489 27.9989 173.319 28.3489 174.009 28.7989C174.699 29.2489 175.239 29.7889 175.619 30.4189C175.999 31.0489 176.189 31.7489 176.189 32.5189C176.189 32.9989 176.139 33.4389 176.039 33.8389C175.939 34.2389 175.769 34.6089 175.529 34.9689C175.289 35.3289 174.969 35.6689 174.579 35.9989C174.189 36.3289 173.709 36.6589 173.129 36.9989C173.719 37.1889 174.259 37.4389 174.759 37.7589C175.259 38.0789 175.689 38.4389 176.049 38.8589C176.409 39.2789 176.699 39.7389 176.899 40.2389C177.099 40.7389 177.199 41.2789 177.199 41.8589C177.199 42.6489 177.019 43.3889 176.659 44.0689C176.299 44.7489 175.779 45.3389 175.119 45.8489C174.459 46.3589 173.659 46.7589 172.719 47.0489C171.789 47.3389 170.749 47.4789 169.609 47.4789H159.719V27.3889V27.3789ZM164.659 36.0789H167.899C168.419 36.0789 168.889 35.9989 169.299 35.8389C169.709 35.6789 170.059 35.4489 170.339 35.1489C170.619 34.8489 170.839 34.5089 170.989 34.1089C171.139 33.7089 171.209 33.2689 171.209 32.7889C171.209 32.2689 171.119 31.7889 170.929 31.3489C170.739 30.9089 170.459 30.5389 170.069 30.2289C169.689 29.9189 169.199 29.6789 168.609 29.4989C168.019 29.3289 167.309 29.2389 166.489 29.2389H164.659V36.0689V36.0789ZM164.659 45.4089H167.379C168.169 45.4089 168.859 45.3189 169.449 45.1489C170.029 44.9789 170.519 44.7389 170.899 44.4289C171.279 44.1289 171.559 43.7689 171.749 43.3489C171.939 42.9289 172.019 42.4789 172.019 41.9789C172.019 41.4189 171.939 40.8889 171.769 40.4089C171.599 39.9289 171.329 39.5089 170.949 39.1589C170.569 38.8089 170.079 38.5389 169.459 38.3289C168.839 38.1289 168.089 38.0289 167.199 38.0289H164.659V45.3989V45.4089Z" fill="white"/>
<path d="M190.77 26.959L200.18 47.469H195.14L192.62 41.989H184.82L182.18 47.469H178.84L188.63 26.959H190.77ZM185.75 40.119H191.79L188.81 33.629L185.75 40.119Z" fill="white"/>
<path d="M202.639 27.3789H207.439L214.389 41.0989L221.239 27.3789H225.929V47.4689H221.009V34.3689L214.439 47.4689H212.549L205.759 34.2289V47.4689H202.639V27.3789Z" fill="white"/>
<path d="M231.09 27.3789H236.01V47.4689H231.09V27.3789Z" fill="white"/>
<path d="M33.9289 47.8402C42.9312 47.8402 50.2289 40.5425 50.2289 31.5402C50.2289 22.538 42.9312 15.2402 33.9289 15.2402C24.9267 15.2402 17.6289 22.538 17.6289 31.5402C17.6289 40.5425 24.9267 47.8402 33.9289 47.8402Z" fill="white"/>
<path d="M33.1985 27.4199C33.1285 27.0399 33.0585 26.6699 32.9285 26.3099C32.7385 25.7699 32.4285 25.2599 32.1385 24.7599C32.0385 24.5799 32.0385 24.4699 32.1685 24.3499C32.7085 23.8199 33.2585 23.2999 33.7885 22.7699C33.8485 22.7199 33.8885 22.6899 33.9385 22.6799C33.9885 22.6799 34.0285 22.7199 34.0885 22.7699C34.6285 23.2999 35.1685 23.8299 35.7085 24.3499C35.8385 24.4799 35.8485 24.5799 35.7385 24.7599C35.4485 25.2599 35.1385 25.7699 34.9485 26.3099C34.8185 26.6699 34.7485 27.0399 34.6785 27.4199C36.1585 27.6299 37.4385 28.4399 38.2785 29.5999C39.1485 28.9599 40.0085 28.3099 40.9285 27.7599C42.2185 26.9899 43.5785 26.3399 44.9185 25.6599C45.9485 25.1399 47.0285 24.7099 48.0385 24.1499C49.1885 23.5099 50.1785 22.6599 51.0385 21.6499C51.8085 20.7399 52.4285 19.7299 52.9085 18.6399C53.3885 17.5399 53.6885 16.3999 53.7985 15.1999C53.8385 14.7699 53.8785 14.3299 53.8985 14.1099C53.8785 12.9499 53.7285 12.0199 53.5085 11.0899C53.0385 9.11994 52.0885 7.42994 50.7385 5.92994C49.7885 4.87994 48.6585 4.06994 47.4185 3.40994C46.6285 2.98994 45.7985 2.72994 44.9485 2.48994C43.6985 2.13994 42.4185 2.03994 41.1285 2.14994C40.2785 2.21994 39.4385 2.38994 38.6085 2.63994C37.0885 3.08994 35.7485 3.83994 34.5185 4.81994C34.3785 4.92994 34.2485 5.06994 34.1185 5.17994C34.0585 5.22994 33.9985 5.24994 33.9385 5.25994C33.8785 5.25994 33.8185 5.22994 33.7585 5.17994C33.6185 5.05994 33.4985 4.92994 33.3585 4.81994C32.1285 3.84994 30.7885 3.09994 29.2685 2.63994C28.4385 2.38994 27.6085 2.21994 26.7485 2.14994C25.4585 2.04994 24.1885 2.14994 22.9285 2.48994C22.0785 2.72994 21.2385 2.99994 20.4585 3.40994C19.2085 4.06994 18.0885 4.87994 17.1385 5.92994C15.7985 7.41994 14.8385 9.10994 14.3685 11.0899C14.1485 12.0199 14.0085 12.9499 13.9785 14.1099C13.9985 14.3399 14.0385 14.7699 14.0785 15.1999C14.1885 16.3899 14.4885 17.5399 14.9685 18.6399C15.4485 19.7399 16.0685 20.7399 16.8385 21.6499C17.6885 22.6599 18.6885 23.5099 19.8385 24.1499C20.8485 24.7099 21.9285 25.1399 22.9585 25.6599C24.2985 26.3399 25.6585 26.9899 26.9485 27.7599C27.8685 28.3099 28.7185 28.9599 29.5785 29.5899C30.4185 28.4299 31.7085 27.6199 33.1885 27.4199H33.1985Z" fill="url(#paint6_linear_3_2326)"/>
<path d="M65.5495 31.5502C64.9295 29.6402 63.9395 27.9702 62.4595 26.5802C61.7595 25.9202 61.0295 25.3402 60.0295 24.7402C59.8195 24.6502 59.4295 24.4702 59.0295 24.2802C57.9395 23.7802 56.7995 23.4702 55.6095 23.3402C54.4195 23.2102 53.2395 23.2502 52.0595 23.4602C50.7595 23.7002 49.5295 24.1402 48.3995 24.8102C47.4095 25.4102 46.4995 26.1202 45.5295 26.7602C44.2695 27.5802 43.0295 28.4302 41.7195 29.1702C40.7895 29.6902 39.7995 30.1102 38.8095 30.5402C39.1095 31.2102 39.2795 31.9502 39.2795 32.7302C39.2795 33.4502 39.1395 34.1302 38.8795 34.7502C39.2495 34.8802 39.6095 35.0102 39.9895 35.0802C40.5595 35.1902 41.1495 35.1702 41.7295 35.1702C41.9395 35.1702 42.0295 35.2302 42.0695 35.4002C42.2595 36.1302 42.4395 36.8702 42.6295 37.6002C42.6495 37.6802 42.6495 37.7302 42.6295 37.7802C42.5995 37.8202 42.5495 37.8402 42.4795 37.8602C41.7495 38.0602 41.0295 38.2702 40.2995 38.4802C40.1295 38.5302 40.0295 38.4802 39.9295 38.3002C39.6395 37.8002 39.3495 37.2802 38.9795 36.8402C38.7295 36.5502 38.4295 36.2902 38.1295 36.0402C37.2495 37.1602 35.9495 37.9202 34.4595 38.0702C34.5795 39.1502 34.7195 40.2202 34.7295 41.3002C34.7495 42.8002 34.6395 44.3002 34.5595 45.8002C34.4995 46.9502 34.3395 48.1002 34.3195 49.2602C34.2995 50.5702 34.5395 51.8602 34.9895 53.1002C35.3995 54.2302 35.9595 55.2602 36.6695 56.2302C37.3795 57.2002 38.2195 58.0302 39.1995 58.7202C39.5595 58.9702 39.9095 59.2202 40.0995 59.3502C41.1195 59.9102 41.9995 60.2502 42.9095 60.5202C44.8495 61.1002 46.7895 61.1102 48.7595 60.6902C50.1495 60.3902 51.4095 59.8202 52.5995 59.0702C53.3495 58.6002 53.9995 58.0102 54.6295 57.3902C55.5595 56.4802 56.2795 55.4202 56.8295 54.2502C57.1995 53.4802 57.4595 52.6702 57.6595 51.8202C58.0295 50.2802 58.0395 48.7402 57.8095 47.1802C57.7795 47.0002 57.7295 46.8302 57.6995 46.6502C57.6895 46.5702 57.6995 46.5102 57.7195 46.4602C57.7195 46.4602 57.7995 46.3702 57.8795 46.3402C58.0495 46.2802 58.2295 46.2402 58.3995 46.1702C59.8595 45.5902 61.1795 44.8002 62.3295 43.7102C62.9595 43.1102 63.5195 42.4802 64.0095 41.7702C64.7395 40.7102 65.2995 39.5502 65.6195 38.2902C65.8395 37.4302 66.0195 36.5702 66.0495 35.6902C66.0995 34.2802 65.9595 32.9002 65.5195 31.5502H65.5495Z" fill="url(#paint7_linear_3_2326)"/>
<path d="M29.7094 36.0302C29.4094 36.2802 29.1194 36.5402 28.8694 36.8302C28.4894 37.2702 28.2094 37.7902 27.9194 38.2902C27.8194 38.4702 27.7194 38.5202 27.5494 38.4702C26.8194 38.2702 26.0994 38.0502 25.3694 37.8502C25.2894 37.8302 25.2494 37.8002 25.2194 37.7702C25.2094 37.7302 25.1994 37.6702 25.2194 37.5902C25.4094 36.8602 25.5994 36.1302 25.7794 35.3902C25.8194 35.2202 25.9194 35.1502 26.1194 35.1602C26.6994 35.1602 27.2894 35.1802 27.8594 35.0702C28.2394 35.0002 28.5994 34.8802 28.9694 34.7502C28.7194 34.1302 28.5694 33.4502 28.5694 32.7402C28.5694 31.9602 28.7394 31.2202 29.0394 30.5502C28.0594 30.1102 27.0594 29.7002 26.1294 29.1702C24.8194 28.4402 23.5794 27.5902 22.3194 26.7602C21.3494 26.1302 20.4394 25.4102 19.4494 24.8102C18.3294 24.1302 17.0894 23.6902 15.7894 23.4602C14.6094 23.2502 13.4294 23.2102 12.2394 23.3402C11.0494 23.4702 9.9094 23.7802 8.8194 24.2802C8.4294 24.4602 8.0294 24.6402 7.8194 24.7402C6.8194 25.3402 6.0894 25.9302 5.3894 26.5802C3.9194 27.9702 2.9194 29.6402 2.2994 31.5502C1.8594 32.9002 1.7194 34.2802 1.7694 35.6902C1.7994 36.5802 1.9794 37.4402 2.1994 38.2902C2.5194 39.5502 3.0694 40.7102 3.8094 41.7702C4.2894 42.4702 4.85939 43.1102 5.48939 43.7102C6.63939 44.8002 7.95939 45.5902 9.41939 46.1702C9.58939 46.2402 9.7694 46.2802 9.9394 46.3402C10.0094 46.3702 10.0594 46.4102 10.0994 46.4502C10.1294 46.5002 10.1394 46.5602 10.1194 46.6402C10.0894 46.8202 10.0294 46.9902 10.0094 47.1702C9.7794 48.7202 9.7994 50.2602 10.1594 51.8102C10.3594 52.6502 10.6294 53.4602 10.9894 54.2402C11.5394 55.4102 12.2594 56.4702 13.1894 57.3802C13.8194 58.0002 14.4694 58.5902 15.2194 59.0602C16.4094 59.8102 17.6794 60.3802 19.0594 60.6802C21.0194 61.1002 22.9694 61.0802 24.9094 60.5102C25.8294 60.2402 26.6994 59.9002 27.7194 59.3402C27.9094 59.2102 28.2594 58.9602 28.6194 58.7102C29.5994 58.0202 30.4394 57.1902 31.1494 56.2202C31.8594 55.2602 32.4194 54.2202 32.8294 53.0902C33.2794 51.8502 33.5194 50.5602 33.4994 49.2502C33.4794 48.1002 33.3194 46.9502 33.2594 45.7902C33.1794 44.2902 33.0694 42.7902 33.0894 41.2902C33.1094 40.2202 33.2494 39.1402 33.3594 38.0702C31.8694 37.9202 30.5594 37.1502 29.6894 36.0302H29.7094Z" fill="url(#paint8_linear_3_2326)"/>
<path d="M33.9295 28.5703C31.6295 28.5703 29.7695 30.4303 29.7695 32.7303C29.7695 35.0303 31.6295 36.8903 33.9295 36.8903C36.2295 36.8903 38.0895 35.0303 38.0895 32.7303C38.0895 30.4303 36.2295 28.5703 33.9295 28.5703Z" fill="#EE3C23"/>
<path d="M38.2896 29.6094C39.0396 28.9894 39.7796 28.3594 40.5896 27.7894C41.3996 27.2294 42.2496 26.7394 43.0896 26.2494C43.9396 25.7694 44.7796 25.2795 45.6596 24.8295C46.5296 24.3795 47.3996 23.9594 48.1596 23.4494C49.6796 22.4094 50.9096 20.9694 51.7496 19.3394C52.1696 18.5194 52.4896 17.6594 52.6896 16.7894C52.7896 16.3494 52.8696 15.9094 52.9096 15.4594L52.9396 15.1294L52.9696 14.7594L53.0196 14.0294V14.1294C52.9696 13.0394 52.7896 11.9794 52.4896 10.9594C52.1896 9.94945 51.7296 8.99945 51.1396 8.12945C50.8496 7.68945 50.5196 7.26945 50.1696 6.87945C49.8196 6.47945 49.4596 6.12945 49.0496 5.78945C48.6496 5.45945 48.2196 5.15945 47.7696 4.87945C47.5396 4.73945 47.3096 4.60945 47.0796 4.48945C46.8396 4.35945 46.6296 4.25945 46.3896 4.15945C45.9196 3.96945 45.4196 3.80945 44.8896 3.65945C44.6096 3.57945 44.3796 3.52945 44.1296 3.46945C43.8796 3.41945 43.6296 3.37945 43.3696 3.33945C42.3596 3.21945 41.2996 3.24945 40.2896 3.43945C39.7796 3.52945 39.2596 3.66945 38.7696 3.82945C38.2796 3.98945 37.7996 4.17945 37.3396 4.41945C36.8796 4.64945 36.4296 4.91945 35.9996 5.21945C35.7796 5.36945 35.5696 5.51945 35.3596 5.68945C35.2496 5.76945 35.1596 5.85945 35.0596 5.94945L34.9096 6.07945C34.9096 6.07945 34.8496 6.12945 34.7896 6.16945C34.7296 6.20945 34.6596 6.25945 34.5796 6.29945C34.4996 6.33945 34.4096 6.37945 34.3096 6.40945C34.2596 6.41945 34.2096 6.43945 34.1496 6.43945C34.0896 6.43945 34.0696 6.44945 33.9396 6.45945C33.7996 6.45945 33.7896 6.45945 33.7296 6.43945C33.6796 6.43945 33.6296 6.41945 33.5696 6.40945C33.4696 6.37945 33.3796 6.34945 33.2996 6.29945C33.2196 6.25945 33.1496 6.21945 33.0896 6.16945C33.0296 6.12945 32.9696 6.06945 32.9696 6.07945L32.8196 5.94945C32.7196 5.85945 32.6296 5.76945 32.5196 5.68945C32.3096 5.52945 32.0996 5.36945 31.8796 5.21945C31.4496 4.91945 30.9996 4.65945 30.5396 4.41945C30.0796 4.18945 29.5996 3.98945 29.1096 3.82945C28.6196 3.66945 28.0896 3.53945 27.5896 3.43945C26.5796 3.24945 25.5196 3.21945 24.5096 3.33945C24.2596 3.36945 23.9996 3.40945 23.7496 3.46945C23.4996 3.51945 23.2696 3.57945 22.9896 3.65945C22.4596 3.80945 21.9596 3.96945 21.4896 4.15945C21.2496 4.25945 21.0496 4.35945 20.7996 4.48945C20.5596 4.61945 20.3296 4.74945 20.1096 4.87945C19.6596 5.15945 19.2296 5.45945 18.8296 5.78945C18.4296 6.11945 18.0596 6.46945 17.7096 6.86945C17.3596 7.26945 17.0296 7.68945 16.7396 8.11945C16.1496 8.98945 15.6996 9.93945 15.3896 10.9494C15.0896 11.9794 14.8996 13.0394 14.8596 14.1194V14.0194L14.9096 14.7494L14.9396 15.1094L14.9696 15.4394C15.0096 15.8894 15.0896 16.3294 15.1896 16.7594C15.3896 17.6294 15.7096 18.4895 16.1296 19.3095C16.9596 20.9395 18.1896 22.3794 19.7096 23.4194C20.4696 23.9294 21.3396 24.3594 22.2096 24.7994C23.0896 25.2494 23.9296 25.7394 24.7796 26.2094C25.6296 26.6994 26.4696 27.1894 27.2796 27.7494C28.0796 28.3194 28.8296 28.9394 29.5796 29.5694C28.7596 29.0494 27.9496 28.4994 27.1096 28.0394C26.2596 27.5794 25.3896 27.1594 24.4996 26.7694L23.1696 26.1794C22.7196 25.9794 22.2996 25.7794 21.8496 25.5994C20.9596 25.2194 20.0396 24.8694 19.1396 24.3594C18.2496 23.8594 17.4296 23.2095 16.7196 22.4694C15.9996 21.7394 15.3796 20.9194 14.8496 20.0294C14.3296 19.1494 13.8996 18.1994 13.5996 17.1894C13.4596 16.6894 13.3396 16.1694 13.2696 15.6494L13.2196 15.2594L13.1796 14.8994L13.0996 14.1794V14.1494V14.0794C13.0996 12.8594 13.2496 11.6294 13.5496 10.4294C13.8596 9.21945 14.3596 8.03945 15.0296 6.98945C15.3596 6.45945 15.7296 5.94945 16.1296 5.47945C16.5196 4.99945 16.9796 4.52945 17.4496 4.11945C17.9296 3.69945 18.4396 3.32945 18.9596 2.98945C19.2196 2.81945 19.4896 2.65945 19.7596 2.50945C20.0196 2.35945 20.3296 2.19945 20.6196 2.06945C21.2096 1.80945 21.7996 1.60945 22.3796 1.42945C22.6596 1.33945 22.9796 1.25945 23.2896 1.18945C23.5996 1.11945 23.9196 1.05945 24.2396 1.01945C25.5096 0.849449 26.7796 0.879449 28.0396 1.08945C28.6696 1.19945 29.2696 1.34945 29.8696 1.53945C30.4796 1.72945 31.0696 1.96945 31.6396 2.25945C32.2096 2.53945 32.7496 2.85945 33.2696 3.21945C33.5296 3.39945 33.7796 3.57945 34.0296 3.76945C34.1596 3.85945 34.2696 3.96945 34.3796 4.06945L34.5496 4.22945C34.5496 4.22945 34.5496 4.22945 34.5196 4.19945C34.4896 4.17945 34.4496 4.14945 34.3996 4.12945C34.3496 4.10945 34.2896 4.07945 34.2296 4.05945C34.1996 4.05945 34.1596 4.03945 34.1296 4.03945C34.0896 4.03945 34.0896 4.03945 33.9696 4.02945C33.8496 4.02945 33.8496 4.02945 33.8096 4.03945C33.7696 4.03945 33.7396 4.04945 33.7096 4.05945C33.6396 4.07945 33.5796 4.09945 33.5396 4.12945C33.4896 4.14945 33.4496 4.17945 33.4196 4.19945C33.3896 4.21945 33.3596 4.24945 33.3896 4.22945L33.5596 4.06945C33.6796 3.96945 33.7896 3.85945 33.9096 3.76945C34.1596 3.57945 34.4096 3.39945 34.6696 3.21945C35.1896 2.86945 35.7296 2.53945 36.2996 2.25945C36.8696 1.97945 37.4596 1.73945 38.0696 1.53945C38.6696 1.34945 39.2696 1.19945 39.8996 1.08945C41.1596 0.869449 42.4296 0.849449 43.6996 1.01945C44.0196 1.05945 44.3296 1.11945 44.6496 1.18945C44.9596 1.25945 45.2796 1.34945 45.5596 1.42945C46.1296 1.59945 46.7296 1.80945 47.3196 2.06945C47.6096 2.19945 47.9196 2.35945 48.1796 2.50945C48.4496 2.65945 48.7096 2.81945 48.9796 2.98945C49.4996 3.32945 50.0096 3.69945 50.4896 4.11945C50.9696 4.52945 51.4196 4.99945 51.8096 5.46945C52.2096 5.93945 52.5796 6.44945 52.9096 6.97945C53.5796 8.02945 54.0796 9.20945 54.3896 10.4194C54.6896 11.6094 54.8396 12.8494 54.8396 14.0694V14.1394V14.1694L54.7596 14.8894L54.7196 15.2494L54.6696 15.6394C54.5996 16.1594 54.4796 16.6694 54.3396 17.1794C54.0396 18.1894 53.6096 19.1394 53.0896 20.0194C52.5596 20.9094 51.9296 21.7294 51.2196 22.4594C50.4996 23.1994 49.6896 23.8394 48.7896 24.3394C47.8896 24.8394 46.9696 25.1995 46.0796 25.5795C45.6296 25.7695 45.1996 25.9594 44.7496 26.1594L43.4196 26.7494C42.5396 27.1494 41.6596 27.5594 40.8096 28.0294C39.9596 28.4894 39.1596 29.0494 38.3396 29.5694L38.2896 29.6094Z" fill="white"/>
<path d="M34.4794 38.07C34.6494 39.03 34.8194 39.99 34.9094 40.97C34.9894 41.95 34.9994 42.93 34.9994 43.91C34.9894 44.89 34.9994 45.86 34.9394 46.85C34.8894 47.83 34.8294 48.79 34.8894 49.71C35.0294 51.54 35.6694 53.34 36.6594 54.87C37.1594 55.64 37.7394 56.35 38.3994 56.96C38.7294 57.27 39.0694 57.56 39.4394 57.82L39.7194 58.01L40.0194 58.22L40.6294 58.63L40.5394 58.58C41.4994 59.08 42.5094 59.46 43.5594 59.7C44.5894 59.94 45.6394 60.01 46.6894 59.94C47.2194 59.9 47.7394 59.83 48.2594 59.73C48.7794 59.62 49.2694 59.49 49.7594 59.3C50.2494 59.12 50.7194 58.89 51.1894 58.64C51.4194 58.51 51.6494 58.38 51.8794 58.23C52.1094 58.08 52.2994 57.96 52.5094 57.8C52.9094 57.49 53.2994 57.13 53.6894 56.75C53.8894 56.55 54.0594 56.38 54.2294 56.18C54.3994 55.99 54.5594 55.79 54.7194 55.59C55.3294 54.77 55.8294 53.84 56.1694 52.87C56.3394 52.38 56.4794 51.87 56.5894 51.36C56.6994 50.86 56.7694 50.35 56.7994 49.83C56.8294 49.31 56.8194 48.79 56.7794 48.27C56.7594 48.01 56.7294 47.75 56.6894 47.48C56.6794 47.35 56.6394 47.22 56.6094 47.09L56.5694 46.9C56.5694 46.9 56.5494 46.82 56.5494 46.75C56.5494 46.68 56.5394 46.6 56.5494 46.51C56.5494 46.33 56.6094 46.11 56.7094 45.92L56.7394 45.87L56.7594 45.84C56.8894 45.63 57.0394 45.5 57.1994 45.39C57.2794 45.34 57.3494 45.3 57.4194 45.27C57.4794 45.24 57.5594 45.21 57.5594 45.21L57.7494 45.15C57.8794 45.11 57.9994 45.08 58.1294 45.02C58.3794 44.92 58.6194 44.81 58.8494 44.7C59.3194 44.47 59.7794 44.22 60.2094 43.93C60.6394 43.65 61.0494 43.33 61.4294 42.98C61.8094 42.63 62.1894 42.25 62.5194 41.86C63.1894 41.08 63.7494 40.18 64.1394 39.24C64.2394 39 64.3294 38.76 64.4094 38.52C64.4894 38.27 64.5494 38.04 64.6194 37.77C64.7594 37.24 64.8694 36.72 64.9294 36.22C64.9594 35.96 64.9794 35.74 64.9894 35.46C64.9894 35.19 64.9994 34.93 64.9894 34.66C64.9694 34.13 64.9294 33.61 64.8394 33.1C64.7494 32.58 64.6294 32.1 64.4594 31.59C64.2894 31.09 64.0894 30.6 63.8594 30.12C63.3994 29.18 62.7994 28.31 62.0794 27.54C61.3394 26.76 60.5094 26.08 59.5894 25.5L59.6794 25.55L59.0194 25.23L58.6894 25.07L58.3894 24.93C57.9794 24.75 57.5594 24.59 57.1294 24.46C56.2694 24.2 55.3694 24.05 54.4494 24.01C52.6194 23.92 50.7594 24.27 49.0994 25.06C48.2794 25.46 47.4794 26.01 46.6594 26.54C45.8294 27.08 44.9894 27.56 44.1494 28.06C43.3094 28.55 42.4594 29.04 41.5694 29.46C40.6794 29.87 39.7594 30.21 38.8494 30.54C39.7094 30.09 40.5894 29.66 41.4094 29.16C42.2294 28.66 43.0294 28.1 43.8094 27.54L44.9894 26.68C45.3894 26.39 45.7694 26.12 46.1594 25.82C46.9294 25.23 47.6994 24.62 48.5794 24.09C49.4594 23.57 50.4294 23.18 51.4194 22.93C52.4094 22.67 53.4394 22.54 54.4694 22.53C55.4994 22.52 56.5394 22.62 57.5594 22.86C58.0694 22.99 58.5694 23.15 59.0594 23.34L59.4194 23.49L59.7494 23.63L60.4194 23.92H60.4494L60.5094 23.97C61.5694 24.57 62.5594 25.32 63.4494 26.18C64.3494 27.05 65.1194 28.07 65.6994 29.18C65.9894 29.73 66.2494 30.3 66.4594 30.89C66.6794 31.47 66.8594 32.1 66.9794 32.71C67.0994 33.33 67.1694 33.96 67.1994 34.58C67.2094 34.89 67.2194 35.2 67.2194 35.51C67.2194 35.81 67.1994 36.16 67.1694 36.48C67.0994 37.12 66.9794 37.74 66.8394 38.32C66.7794 38.6 66.6894 38.93 66.5994 39.23C66.4994 39.54 66.3994 39.84 66.2794 40.13C65.7894 41.32 65.1394 42.4 64.3194 43.39C63.9094 43.88 63.4794 44.32 63.0194 44.75C62.5494 45.18 62.0494 45.57 61.5194 45.93C60.9894 46.28 60.4394 46.59 59.8794 46.87C59.5994 47.01 59.3094 47.13 59.0294 47.25C58.8894 47.31 58.7394 47.35 58.5894 47.41L58.3694 47.48C58.3694 47.48 58.3694 47.48 58.4094 47.46C58.4394 47.44 58.4794 47.42 58.5294 47.39C58.6294 47.32 58.7194 47.24 58.8194 47.09L58.8694 47.01C58.9294 46.89 58.9694 46.74 58.9694 46.63C58.9694 46.58 58.9694 46.53 58.9694 46.49C58.9694 46.45 58.9594 46.41 58.9694 46.45L59.0194 46.68C59.0494 46.83 59.0894 46.98 59.1094 47.14C59.1494 47.45 59.1894 47.76 59.2094 48.07C59.2594 48.69 59.2694 49.33 59.2294 49.96C59.1894 50.59 59.0994 51.23 58.9694 51.85C58.8394 52.47 58.6594 53.06 58.4494 53.66C58.0094 54.86 57.3994 55.97 56.6194 56.99C56.4194 57.24 56.2194 57.49 55.9994 57.72C55.7894 57.95 55.5494 58.19 55.3294 58.39C54.8894 58.8 54.4194 59.22 53.8994 59.6C53.6394 59.79 53.3494 59.98 53.0894 60.13C52.8194 60.29 52.5494 60.44 52.2794 60.58C51.7294 60.86 51.1494 61.12 50.5494 61.32C49.9594 61.53 49.3194 61.69 48.7194 61.79C48.1094 61.9 47.4894 61.97 46.8594 61.99C45.6094 62.05 44.3394 61.89 43.1394 61.55C41.9594 61.21 40.8094 60.73 39.7494 60.12L39.6894 60.08L39.6694 60.06L39.0894 59.63L38.7994 59.41L38.4894 59.17C38.0794 58.85 37.6894 58.49 37.3194 58.12C36.5994 57.36 35.9894 56.51 35.4794 55.62C34.9694 54.72 34.5794 53.76 34.2994 52.78C34.0194 51.79 33.8694 50.76 33.8794 49.73C33.8894 48.7 34.0394 47.72 34.1594 46.76C34.2194 46.28 34.2694 45.81 34.3194 45.32L34.4694 43.87C34.5694 42.9 34.6394 41.94 34.6594 40.97C34.6794 40 34.5994 39.03 34.5594 38.06L34.4794 38.07Z" fill="white"/>
<path d="M29.0395 30.5392C28.1295 30.1992 27.2095 29.8692 26.3195 29.4592C25.4295 29.0392 24.5795 28.5492 23.7395 28.0592C22.8995 27.5592 22.0595 27.0792 21.2295 26.5392C20.4095 26.0092 19.6095 25.4692 18.7895 25.0592C17.1295 24.2592 15.2695 23.9192 13.4395 23.9992C12.5195 24.0392 11.6195 24.1892 10.7595 24.4492C10.3295 24.5792 9.90953 24.7292 9.49953 24.9192L9.19953 25.0592L8.86953 25.2192L8.20953 25.5392L8.29953 25.4892C7.37953 26.0692 6.54953 26.7492 5.80953 27.5292C5.08953 28.2992 4.48953 29.1692 4.02953 30.1092C3.79953 30.5792 3.58953 31.0692 3.42953 31.5792C3.25953 32.0892 3.12953 32.5692 3.04953 33.0892C2.95953 33.5992 2.91953 34.1192 2.89953 34.6492C2.89953 34.9092 2.89953 35.1792 2.89953 35.4492C2.89953 35.7292 2.92953 35.9492 2.95953 36.2092C3.02953 36.7092 3.13953 37.2292 3.27953 37.7592C3.34953 38.0392 3.41953 38.2692 3.49953 38.5092C3.57953 38.7492 3.66953 38.9892 3.76953 39.2292C4.16953 40.1692 4.72953 41.0692 5.38953 41.8492C5.71953 42.2392 6.09953 42.6192 6.48953 42.9692C6.86953 43.3192 7.27953 43.6292 7.70953 43.9192C8.13953 44.2092 8.59953 44.4592 9.06953 44.6892C9.30953 44.7992 9.54953 44.9092 9.78953 45.0092C9.90953 45.0692 10.0395 45.0992 10.1695 45.1392L10.3595 45.1992C10.3595 45.1992 10.4395 45.2292 10.4995 45.2492C10.5695 45.2792 10.6395 45.3192 10.7095 45.3692C10.7895 45.4192 10.8595 45.4792 10.9395 45.5592C10.9795 45.5992 11.0095 45.6392 11.0495 45.6792C11.0895 45.7292 11.0995 45.7392 11.1695 45.8592C11.2395 45.9792 11.2395 45.9992 11.2595 46.0492C11.2795 46.0992 11.2995 46.1492 11.3095 46.1992C11.3395 46.2992 11.3495 46.3992 11.3595 46.4892C11.3595 46.5792 11.3595 46.6592 11.3595 46.7392C11.3595 46.8092 11.3395 46.8892 11.3395 46.8892L11.2995 47.0792C11.2695 47.2092 11.2395 47.3392 11.2195 47.4692C11.1795 47.7292 11.1495 47.9892 11.1295 48.2592C11.0895 48.7792 11.0795 49.2992 11.1095 49.8192C11.1395 50.3392 11.2095 50.8492 11.3195 51.3492C11.4295 51.8592 11.5695 52.3792 11.7395 52.8592C12.0795 53.8292 12.5795 54.7592 13.1895 55.5792C13.3395 55.7792 13.5095 55.9792 13.6795 56.1692C13.8495 56.3592 14.0195 56.5292 14.2195 56.7392C14.6095 57.1292 14.9995 57.4792 15.3995 57.7892C15.6095 57.9492 15.7895 58.0792 16.0295 58.2192C16.2595 58.3592 16.4895 58.4992 16.7195 58.6192C17.1795 58.8692 17.6595 59.0892 18.1395 59.2792C18.6295 59.4692 19.1095 59.5992 19.6395 59.7092C20.1595 59.8192 20.6795 59.8892 21.2095 59.9292C22.2595 59.9992 23.3095 59.9292 24.3395 59.6892C25.3795 59.4392 26.3895 59.0692 27.3495 58.5692L27.2595 58.6192L27.8695 58.2092L28.1695 58.0092L28.4495 57.8192C28.8095 57.5592 29.1595 57.2692 29.4895 56.9692C30.1495 56.3592 30.7295 55.6492 31.2295 54.8792C32.2295 53.3492 32.8695 51.5592 33.0095 49.7192C33.0695 48.7992 33.0095 47.8392 32.9595 46.8592C32.9095 45.8692 32.9095 44.8992 32.8995 43.9292C32.8995 42.9492 32.8995 41.9692 32.9895 40.9892C33.0795 40.0092 33.2495 39.0492 33.4195 38.0892C33.3795 39.0592 33.2995 40.0392 33.3195 40.9992C33.3395 41.9592 33.4195 42.9292 33.5195 43.8992L33.6695 45.3492C33.7195 45.8392 33.7595 46.3092 33.8295 46.7892C33.9495 47.7492 34.0995 48.7292 34.1095 49.7592C34.1095 50.7892 33.9695 51.8192 33.6895 52.7992C33.4095 53.7892 33.0095 54.7392 32.5095 55.6392C31.9995 56.5392 31.3995 57.3792 30.6695 58.1392C30.3095 58.5192 29.9195 58.8692 29.4995 59.1892L29.1895 59.4292L28.8995 59.6492L28.3195 60.0792L28.2995 60.0992L28.2395 60.1392C27.1895 60.7492 26.0395 61.2392 24.8495 61.5692C23.6495 61.9092 22.3795 62.0592 21.1295 62.0092C20.4995 61.9892 19.8795 61.9192 19.2695 61.8092C18.6595 61.7092 18.0295 61.5492 17.4295 61.3392C16.8295 61.1292 16.2495 60.8792 15.6995 60.5892C15.4195 60.4492 15.1495 60.2992 14.8895 60.1392C14.6295 59.9892 14.3395 59.7992 14.0795 59.6092C13.5595 59.2292 13.0895 58.8092 12.6495 58.3992C12.4395 58.1992 12.1995 57.9692 11.9895 57.7292C11.7695 57.4892 11.5695 57.2492 11.3695 56.9992C10.5895 55.9792 9.97953 54.8692 9.53953 53.6692C9.31953 53.0692 9.14953 52.4792 9.01953 51.8592C8.87953 51.2392 8.79953 50.5992 8.75953 49.9692C8.71953 49.3392 8.72953 48.6992 8.77953 48.0792C8.79953 47.7692 8.83953 47.4592 8.87953 47.1492C8.89953 46.9992 8.93953 46.8392 8.96953 46.6892L9.01953 46.4592C9.01953 46.4592 9.01953 46.4592 9.01953 46.4992C9.01953 46.5392 9.01953 46.5792 9.01953 46.6392C9.01953 46.6892 9.02953 46.7592 9.04953 46.8192C9.04953 46.8492 9.06953 46.8892 9.07953 46.9192C9.09953 46.9592 9.08953 46.9592 9.14953 47.0692C9.20953 47.1692 9.20953 47.1692 9.23953 47.1992C9.25953 47.2292 9.28953 47.2492 9.30953 47.2792C9.35953 47.3292 9.40953 47.3692 9.44953 47.3992C9.49953 47.4292 9.53953 47.4492 9.56953 47.4692C9.59953 47.4792 9.64953 47.4992 9.60953 47.4892L9.38953 47.4192C9.23953 47.3692 9.08953 47.3292 8.94953 47.2592C8.65953 47.1392 8.37953 47.0092 8.09953 46.8792C7.53953 46.6092 6.97953 46.2992 6.45953 45.9392C5.92953 45.5892 5.42953 45.1892 4.95953 44.7592C4.48953 44.3292 4.06953 43.8892 3.65953 43.3992C2.83953 42.4192 2.18953 41.3292 1.69953 40.1392C1.57953 39.8392 1.46953 39.5392 1.37953 39.2392C1.27953 38.9392 1.19953 38.6092 1.13953 38.3292C0.99953 37.7492 0.87953 37.1292 0.81953 36.4892C0.78953 36.1792 0.769531 35.8192 0.769531 35.5292C0.769531 35.2192 0.769532 34.9092 0.789532 34.5992C0.819532 33.9792 0.889531 33.3492 1.01953 32.7292C1.13953 32.1092 1.31953 31.4892 1.52953 30.9092C1.73953 30.3292 1.99953 29.7592 2.28953 29.1992C2.86953 28.0892 3.63953 27.0692 4.53953 26.1992C5.42953 25.3492 6.41953 24.5992 7.47953 23.9892L7.53953 23.9492H7.56953L8.23953 23.6492L8.56953 23.5092L8.92953 23.3592C9.41953 23.1692 9.91953 23.0092 10.4295 22.8792C11.4495 22.6392 12.4895 22.5292 13.5195 22.5492C14.5495 22.5592 15.5795 22.6992 16.5695 22.9492C17.5595 23.1992 18.5295 23.5892 19.4095 24.1092C20.2995 24.6392 21.0595 25.2492 21.8295 25.8392C22.2195 26.1392 22.5995 26.4092 22.9995 26.6992L24.1795 27.5592C24.9695 28.1292 25.7595 28.6792 26.5795 29.1792C27.3995 29.6792 28.2795 30.0992 29.1495 30.5592L29.0395 30.5392Z" fill="white"/>
<defs>
<linearGradient id="paint0_linear_3_2326" x1="123.85" y1="59.159" x2="136.18" y2="59.159" gradientUnits="userSpaceOnUse">
<stop stop-color="#FCB912"/>
<stop offset="1" stop-color="#F7991C"/>
</linearGradient>
<linearGradient id="paint1_linear_3_2326" x1="138.73" y1="59.1498" x2="146.99" y2="59.1498" gradientUnits="userSpaceOnUse">
<stop stop-color="#FCB912"/>
<stop offset="1" stop-color="#F7991C"/>
</linearGradient>
<linearGradient id="paint2_linear_3_2326" x1="148.699" y1="59.1498" x2="150.769" y2="59.1498" gradientUnits="userSpaceOnUse">
<stop stop-color="#FCB912"/>
<stop offset="1" stop-color="#F7991C"/>
</linearGradient>
<linearGradient id="paint3_linear_3_2326" x1="153.859" y1="59.2998" x2="164.069" y2="59.2998" gradientUnits="userSpaceOnUse">
<stop stop-color="#FCB912"/>
<stop offset="1" stop-color="#F7991C"/>
</linearGradient>
<linearGradient id="paint4_linear_3_2326" x1="167.139" y1="59.1498" x2="169.209" y2="59.1498" gradientUnits="userSpaceOnUse">
<stop stop-color="#FCB912"/>
<stop offset="1" stop-color="#F7991C"/>
</linearGradient>
<linearGradient id="paint5_linear_3_2326" x1="171.77" y1="59.159" x2="184.1" y2="59.159" gradientUnits="userSpaceOnUse">
<stop stop-color="#FCB912"/>
<stop offset="1" stop-color="#F7991C"/>
</linearGradient>
<linearGradient id="paint6_linear_3_2326" x1="33.9985" y1="11.8999" x2="33.7285" y2="23.6999" gradientUnits="userSpaceOnUse">
<stop stop-color="#FCB912"/>
<stop offset="1" stop-color="#F7991C"/>
</linearGradient>
<linearGradient id="paint7_linear_3_2326" x1="52.5544" y1="44.7508" x2="42.447" y2="38.6365" gradientUnits="userSpaceOnUse">
<stop stop-color="#FCB912"/>
<stop offset="1" stop-color="#F7991C"/>
</linearGradient>
<linearGradient id="paint8_linear_3_2326" x1="15.3083" y1="42.8589" x2="25.402" y2="36.7409" gradientUnits="userSpaceOnUse">
<stop stop-color="#FCB912"/>
<stop offset="1" stop-color="#F7991C"/>
</linearGradient>
</defs>
</svg>
