<svg width="52" height="52" viewBox="0 0 52 52" fill="none" xmlns="http://www.w3.org/2000/svg">
<path d="M26.0898 0.960938C40.1498 0.960938 51.5898 12.4009 51.5898 26.4609C51.5898 40.5209 40.1498 51.9609 26.0898 51.9609C12.0298 51.9609 0.589844 40.5209 0.589844 26.4609C0.589844 12.4009 12.0298 0.960938 26.0898 0.960938ZM26.0898 50.9609C39.5998 50.9609 50.5898 39.9709 50.5898 26.4609C50.5898 12.9509 39.5998 1.96094 26.0898 1.96094C12.5798 1.96094 1.58984 12.9509 1.58984 26.4609C1.58984 39.9709 12.5798 50.9609 26.0898 50.9609Z" fill="#006666"/>
<path d="M39.2589 26.6616C39.3089 26.5316 39.3089 26.3816 39.2589 26.2416C39.2289 26.1716 39.1889 26.1116 39.1389 26.0616L30.9789 17.9016C30.7689 17.6916 30.4189 17.6916 30.2089 17.9016C29.9989 18.1116 29.9989 18.4616 30.2089 18.6716L37.4388 25.9016H13.4189C13.1189 25.9016 12.8789 26.1416 12.8789 26.4416C12.8789 26.7416 13.1189 26.9816 13.4189 26.9816H37.4388L30.2089 34.2116C29.9989 34.4216 29.9989 34.7716 30.2089 34.9816C30.3189 35.0916 30.4589 35.1416 30.5889 35.1416C30.7189 35.1416 30.8689 35.0916 30.9689 34.9816L39.1289 26.8216C39.1789 26.7716 39.2189 26.7116 39.2489 26.6416L39.2589 26.6616Z" fill="#006666"/>
</svg>
