<svg width="360" height="229" viewBox="0 0 360 229" fill="none" xmlns="http://www.w3.org/2000/svg">
<mask id="mask0_3_2685" style="mask-type:luminance" maskUnits="userSpaceOnUse" x="0" y="0" width="360" height="229">
<path d="M359.67 0.269531H0V228.14H359.67V0.269531Z" fill="white"/>
</mask>
<g mask="url(#mask0_3_2685)">
<path d="M319.039 340.829C313.519 340.829 307.909 340.049 302.329 338.489C296.109 336.719 290.169 334.209 284.669 331.009L284.169 330.689L277.999 326.089C275.869 324.419 273.809 322.569 271.879 320.579C268.239 316.769 265.009 312.369 262.259 307.499C259.609 302.799 257.529 297.799 256.089 292.649C255.739 291.399 255.419 290.099 255.139 288.749C254.859 290.089 254.549 291.379 254.189 292.619C252.739 297.769 250.659 302.769 248.009 307.459C245.239 312.369 241.999 316.769 238.389 320.529C236.459 322.519 234.399 324.379 232.279 326.039L225.599 330.969C220.089 334.169 214.149 336.679 207.939 338.449C201.509 340.249 194.969 341.019 188.489 340.739C185.239 340.609 181.979 340.259 178.799 339.699C175.539 339.149 172.219 338.299 169.209 337.259C166.299 336.259 163.339 334.989 160.179 333.359C158.779 332.629 157.359 331.839 155.939 330.999C154.559 330.189 153.009 329.179 151.709 328.229C149.369 326.519 147.069 324.579 144.259 321.929C143.039 320.789 141.809 319.549 140.789 318.439C139.659 317.209 138.579 315.919 137.549 314.599C133.499 309.309 130.279 303.459 127.969 297.199C126.869 294.189 125.969 291.099 125.239 287.759C124.529 284.519 124.069 281.199 123.869 277.889C123.669 274.689 123.699 271.359 123.949 268.019C124.049 266.729 124.189 265.379 124.369 263.979C123.059 263.429 121.839 262.879 120.679 262.319C117.659 260.859 114.779 259.209 112.109 257.429C109.349 255.589 106.709 253.519 104.269 251.279C101.809 249.029 99.589 246.699 97.489 244.169C93.239 239.039 89.7991 233.309 87.2591 227.149C86.6291 225.589 86.059 223.989 85.569 222.419C85.139 221.069 84.719 219.469 84.309 217.659C83.439 213.899 82.9191 210.939 82.6291 208.049C82.4591 206.439 82.369 204.599 82.369 202.999C82.359 201.379 82.389 199.739 82.469 198.159C82.659 194.649 83.039 191.459 83.649 188.399C84.249 185.279 85.179 181.979 86.339 178.879C87.439 175.859 88.769 172.859 90.289 169.979C93.239 164.299 97.189 159.029 102.029 154.319C106.679 149.839 111.839 145.959 117.369 142.809L117.899 142.529L124.979 139.509C127.489 138.509 130.119 137.659 132.809 136.989C137.919 135.759 143.349 135.179 148.929 135.249C154.319 135.319 159.679 136.029 164.859 137.359C165.919 137.629 166.969 137.949 167.979 138.289C167.189 137.589 166.399 136.849 165.649 136.079C161.919 132.259 158.629 127.969 155.879 123.329C153.009 118.489 150.819 113.489 149.359 108.489C148.599 105.819 148.019 103.119 147.639 100.449L146.699 92.209C146.679 85.839 147.459 79.439 149.019 73.169C150.669 66.689 153.259 60.639 156.739 55.169C158.469 52.409 160.399 49.7589 162.469 47.2789C164.569 44.7289 166.959 42.2792 169.369 40.1792C171.679 38.1592 174.259 36.2289 177.249 34.2989C178.589 33.4389 179.989 32.5989 181.409 31.7989C182.799 30.9989 184.449 30.1688 185.929 29.5088C188.579 28.3288 191.419 27.309 195.109 26.189C196.699 25.699 198.389 25.249 199.869 24.919C201.489 24.559 203.149 24.2589 204.809 24.0289C211.409 23.1489 218.089 23.2792 224.669 24.4092C227.839 24.9592 230.959 25.7191 234.219 26.7491C237.379 27.7491 240.479 29.0093 243.459 30.4893C246.339 31.9093 249.209 33.589 251.979 35.479C253.049 36.209 254.149 37.0092 255.269 37.8492C256.409 36.9792 257.489 36.209 258.559 35.479C261.329 33.589 264.199 31.9093 267.079 30.4893C270.059 29.0093 273.159 27.7588 276.319 26.7588C279.499 25.7488 282.619 24.989 285.869 24.419C292.439 23.289 299.119 23.1691 305.719 24.0391C307.379 24.2691 309.049 24.5692 310.669 24.9292C312.069 25.2392 313.669 25.669 315.419 26.209C319.099 27.329 321.929 28.3491 324.589 29.5391C326.069 30.1991 327.719 31.0391 329.099 31.8291C330.529 32.6391 331.929 33.4791 333.249 34.3291C336.199 36.2391 338.769 38.1693 341.119 40.2193C343.529 42.2993 345.919 44.7489 348.029 47.2989C350.099 49.7689 352.039 52.409 353.779 55.169C357.239 60.569 359.829 66.6192 361.499 73.1592C363.069 79.4292 363.849 85.8293 363.829 92.1993L363.809 92.7989L362.899 100.429C362.509 103.119 361.929 105.819 361.169 108.479C359.689 113.529 357.489 118.519 354.629 123.329C351.879 127.969 348.579 132.259 344.849 136.079C344.109 136.839 343.339 137.559 342.549 138.249C343.529 137.919 344.519 137.619 345.519 137.359C350.699 136.029 356.059 135.319 361.449 135.249C367.079 135.189 372.499 135.769 377.569 136.999C380.259 137.669 382.889 138.509 385.399 139.509L393.009 142.799C398.539 145.949 403.699 149.829 408.349 154.309C413.139 158.969 417.099 164.239 420.099 169.979C421.619 172.849 422.959 175.839 424.079 178.879C425.239 181.979 426.169 185.269 426.789 188.399C427.389 191.419 427.779 194.619 427.959 198.169C428.039 199.739 428.069 201.369 428.049 203.019C428.049 204.609 427.949 206.449 427.779 208.069C427.479 210.959 426.949 213.919 426.079 217.679C425.709 219.289 425.259 220.979 424.809 222.429C424.309 224.019 423.749 225.609 423.119 227.159C420.579 233.319 417.139 239.049 412.889 244.179C410.839 246.649 408.609 248.979 406.099 251.289C403.659 253.529 401.019 255.589 398.259 257.439C395.589 259.229 392.699 260.869 389.689 262.329C388.519 262.899 387.299 263.439 385.989 263.999C386.169 265.419 386.309 266.749 386.409 268.029C386.659 271.369 386.689 274.689 386.489 277.899C386.289 281.209 385.819 284.529 385.119 287.769C384.409 291.019 383.519 294.109 382.389 297.209C380.089 303.469 376.869 309.319 372.819 314.599C371.789 315.929 370.699 317.219 369.579 318.439C368.619 319.499 367.449 320.679 366.099 321.919C363.289 324.559 360.989 326.489 358.639 328.199C357.339 329.149 355.789 330.159 354.399 330.969C352.999 331.799 351.569 332.589 350.159 333.319C347.029 334.919 344.079 336.189 341.129 337.199C338.119 338.249 334.799 339.099 331.549 339.659C328.369 340.229 325.109 340.579 321.869 340.719C320.959 340.759 320.049 340.779 319.129 340.779L319.039 340.829ZM255.149 281.819L255.719 285.459C256.099 287.869 256.599 290.189 257.209 292.349C258.629 297.409 260.679 302.319 263.279 306.939C265.979 311.729 269.159 316.049 272.719 319.789C274.609 321.739 276.619 323.549 278.709 325.189L285.259 330.029C290.679 333.179 296.529 335.649 302.649 337.399C309.029 339.179 315.459 339.929 321.729 339.629C324.929 339.499 328.139 339.149 331.259 338.589C334.459 338.039 337.709 337.199 340.659 336.169C343.559 335.179 346.469 333.929 349.539 332.359C350.929 331.639 352.329 330.859 353.719 330.039C355.079 329.249 356.589 328.259 357.859 327.339C360.169 325.659 362.439 323.749 365.209 321.149C366.529 319.919 367.679 318.769 368.619 317.729C369.719 316.529 370.789 315.269 371.799 313.959C375.779 308.769 378.939 303.019 381.199 296.869C382.309 293.819 383.189 290.779 383.889 287.579C384.579 284.399 385.039 281.139 385.239 277.879C385.439 274.729 385.409 271.459 385.159 268.169C385.059 266.779 384.899 265.329 384.689 263.769L384.629 263.329L385.039 263.159C386.489 262.559 387.809 261.969 389.089 261.349C392.059 259.919 394.889 258.299 397.529 256.539C400.239 254.729 402.839 252.699 405.239 250.499C407.719 248.229 409.899 245.939 411.919 243.509C416.099 238.459 419.479 232.839 421.969 226.789C422.579 225.269 423.139 223.709 423.629 222.149C424.079 220.719 424.519 219.069 424.879 217.479C425.749 213.769 426.259 210.849 426.559 208.009C426.729 206.429 426.819 204.619 426.819 203.069C426.839 201.429 426.809 199.819 426.729 198.279C426.549 194.789 426.169 191.649 425.579 188.679C424.979 185.609 424.059 182.379 422.919 179.329C421.819 176.339 420.499 173.389 419.009 170.569C416.059 164.939 412.179 159.759 407.469 155.189C402.889 150.779 397.809 146.959 392.359 143.859L391.939 143.639L384.879 140.629C382.429 139.649 379.849 138.819 377.209 138.169C372.239 136.969 366.889 136.389 361.379 136.459C356.079 136.529 350.809 137.229 345.729 138.539C343.749 139.049 341.839 139.729 339.899 140.449L336.729 141.629L339.329 139.469C340.869 138.189 342.489 136.819 343.939 135.329C347.619 131.569 350.849 127.359 353.559 122.789C356.359 118.059 358.519 113.149 359.979 108.199C360.729 105.599 361.299 102.949 361.669 100.319L362.599 92.5391V92.229C362.619 85.959 361.849 79.649 360.299 73.479C358.659 67.069 356.109 61.1291 352.719 55.8291C351.009 53.1191 349.099 50.5091 347.059 48.0791C344.989 45.5791 342.639 43.179 340.279 41.129C337.969 39.109 335.439 37.2191 332.539 35.3291C331.239 34.4891 329.869 33.6589 328.449 32.8589C327.089 32.0789 325.489 31.2592 324.039 30.6192C321.429 29.4492 318.639 28.4389 315.009 27.3389C313.289 26.8089 311.719 26.3889 310.339 26.0889C308.749 25.7289 307.119 25.439 305.489 25.209C299.009 24.349 292.449 24.4791 285.989 25.5791C282.799 26.1391 279.719 26.889 276.599 27.879C273.499 28.859 270.449 30.0989 267.529 31.5489C264.699 32.9489 261.879 34.599 259.149 36.459C257.989 37.249 256.819 38.0991 255.569 39.0591L255.219 39.3291L254.869 39.0591C253.659 38.1291 252.449 37.249 251.289 36.459C248.559 34.599 245.739 32.9489 242.909 31.5489C239.989 30.0989 236.939 28.859 233.839 27.879C230.629 26.869 227.559 26.1091 224.449 25.5791C217.989 24.4691 211.429 24.349 204.939 25.209C203.309 25.439 201.679 25.7291 200.099 26.0791C198.649 26.3991 196.989 26.8391 195.429 27.3291C191.779 28.4291 188.989 29.4392 186.379 30.5992C184.939 31.2392 183.329 32.0589 181.959 32.8389C180.549 33.6289 179.169 34.4589 177.849 35.2989C174.909 37.1989 172.369 39.0991 170.099 41.0791C167.729 43.1391 165.389 45.5389 163.329 48.0489C161.289 50.4889 159.389 53.0991 157.689 55.8091C154.279 61.1791 151.729 67.119 150.109 73.479C148.569 79.649 147.799 85.959 147.819 92.229L147.839 92.689L148.749 100.309C149.119 102.919 149.689 105.569 150.439 108.179C151.869 113.089 154.029 117.989 156.849 122.749C159.559 127.309 162.789 131.529 166.449 135.279C167.949 136.819 169.639 138.249 171.099 139.459L173.729 141.639L170.529 140.449C168.739 139.779 166.649 139.019 164.549 138.489C159.459 137.179 154.199 136.479 148.889 136.409C143.389 136.349 138.069 136.919 133.059 138.119C130.429 138.769 127.849 139.599 125.389 140.579L117.919 143.809C112.479 146.919 107.389 150.729 102.809 155.149C98.059 159.769 94.189 164.949 91.289 170.519C89.789 173.359 88.479 176.309 87.399 179.289C86.269 182.339 85.3491 185.569 84.7591 188.629C84.1591 191.639 83.779 194.779 83.599 198.229C83.519 199.789 83.489 201.399 83.499 203.009C83.499 204.579 83.589 206.379 83.749 207.949C84.039 210.779 84.549 213.699 85.409 217.419C85.809 219.199 86.229 220.769 86.649 222.089C87.129 223.639 87.689 225.199 88.309 226.729C90.799 232.779 94.179 238.399 98.359 243.449C100.429 245.939 102.619 248.229 105.039 250.449C107.439 252.649 110.039 254.679 112.749 256.489C115.379 258.249 118.209 259.869 121.179 261.299C122.449 261.909 123.769 262.499 125.219 263.109L125.629 263.279L125.569 263.719C125.369 265.249 125.209 266.729 125.099 268.129C124.849 271.419 124.819 274.689 125.019 277.839C125.219 281.089 125.669 284.359 126.369 287.539C127.089 290.829 127.969 293.869 129.059 296.829C131.319 302.979 134.489 308.729 138.469 313.919C139.469 315.209 140.539 316.479 141.639 317.679C142.639 318.769 143.849 319.989 145.049 321.109C147.829 323.729 150.089 325.639 152.389 327.319C153.659 328.249 155.169 329.239 156.529 330.029C157.929 330.859 159.339 331.649 160.709 332.359C163.819 333.959 166.729 335.209 169.589 336.189C172.549 337.209 175.809 338.039 179.009 338.589C182.139 339.139 185.349 339.479 188.549 339.609C194.899 339.889 201.329 339.139 207.639 337.369C213.759 335.629 219.609 333.149 225.029 329.999L225.429 329.749L231.579 325.159C233.649 323.539 235.669 321.719 237.569 319.769C241.109 316.079 244.289 311.759 247.009 306.929C249.609 302.309 251.649 297.399 253.079 292.339C253.689 290.199 254.189 287.889 254.569 285.479L255.139 281.839L255.149 281.819ZM317.339 330.219C313.069 330.219 308.899 329.749 304.869 328.809C299.409 327.509 294.139 325.549 289.219 322.979L283.359 318.999C281.479 317.659 279.649 316.149 277.919 314.519C274.539 311.379 271.479 307.699 268.819 303.589C263.469 295.329 260.259 285.999 259.549 276.599C259.319 273.229 259.449 269.699 259.579 266.649L259.799 261.719C259.999 257.749 260.029 253.779 260.059 249.929C260.059 248.799 260.079 247.669 260.089 246.539C260.099 241.669 260.079 236.479 259.639 231.369C259.189 226.569 258.349 221.769 257.529 217.129L257.299 215.789L257.919 215.729C265.179 214.989 271.959 211.229 276.519 205.419L276.889 204.949L277.349 205.329C278.779 206.529 280.419 207.939 281.799 209.549C283.619 211.669 285.039 214.149 286.419 216.549L286.789 217.199C287.239 217.989 287.529 218.009 288.069 217.849C289.479 217.449 290.879 217.049 292.289 216.649C294.649 215.979 297.009 215.299 299.369 214.659C299.559 214.609 299.699 214.549 299.799 214.479C299.809 214.359 299.799 214.199 299.739 214.019C299.109 211.659 298.509 209.299 297.909 206.939C297.549 205.509 297.179 204.079 296.809 202.639C296.669 202.099 296.509 201.859 295.619 201.859H294.809C292.049 201.879 289.209 201.899 286.479 201.389C284.399 200.999 282.369 200.309 280.639 199.679L280.069 199.479L280.299 198.919C281.639 195.639 282.319 192.189 282.319 188.669C282.319 184.849 281.519 181.119 279.939 177.589L279.689 177.029L280.909 176.579C285.339 174.949 289.929 173.259 294.319 171.219C298.959 169.019 303.449 166.439 307.639 163.989C308.589 163.429 309.539 162.859 310.489 162.299C313.819 160.339 317.259 158.299 320.599 156.119L321.699 155.409C325.389 153.019 328.869 150.769 332.519 148.899C332.639 148.839 332.749 148.769 332.859 148.699C333.009 148.609 333.169 148.519 333.319 148.439C341.799 144.349 351.459 142.449 361.289 142.929C366.139 143.159 370.849 143.959 375.289 145.299C377.569 145.979 379.789 146.799 381.879 147.749L388.199 150.779C392.949 153.779 397.279 157.349 401.149 161.409C404.889 165.389 408.019 169.939 410.469 174.919C411.689 177.399 412.739 179.979 413.609 182.589C414.499 185.229 415.149 187.819 415.599 190.489C416.029 193.029 416.299 195.779 416.379 198.649C416.409 200.009 416.409 201.399 416.359 202.809C416.319 204.169 416.229 205.359 416.059 206.779C415.759 209.119 415.239 211.689 414.419 214.879C414.059 216.299 413.729 217.519 413.299 218.819C412.879 220.089 412.409 221.359 411.899 222.579C409.809 227.489 406.869 232.229 403.399 236.289C401.669 238.299 399.699 240.329 397.689 242.169C395.699 243.969 393.549 245.639 391.309 247.119C389.109 248.579 386.719 249.929 384.199 251.129C382.879 251.759 381.639 252.309 380.419 252.799C379.989 252.999 379.519 253.139 379.079 253.279C378.869 253.339 378.659 253.409 378.449 253.479L377.409 253.809C377.299 253.849 377.029 253.949 376.799 254.049C376.429 254.219 376.089 254.399 375.759 254.619C374.869 255.219 374.229 255.879 373.669 256.769L373.449 257.159C373.019 257.979 372.739 259.029 372.699 259.949C372.679 260.339 372.689 260.719 372.729 261.129C372.749 261.379 372.799 261.669 372.819 261.779L373.049 262.829C373.099 263.049 373.139 263.259 373.189 263.479C373.299 263.939 373.409 264.419 373.459 264.919C373.649 266.209 373.799 267.549 373.909 268.999C374.139 271.769 374.169 274.519 374.019 277.159C373.869 279.849 373.509 282.539 372.949 285.169C372.349 287.949 371.609 290.609 370.749 293.069C368.989 298.109 366.359 303.039 363.169 307.309C362.359 308.379 361.499 309.429 360.619 310.419C359.729 311.409 358.889 312.289 357.779 313.379C355.439 315.699 353.479 317.449 351.609 318.879C350.469 319.749 349.489 320.419 348.319 321.149C347.139 321.889 345.929 322.599 344.739 323.259C342.139 324.679 339.699 325.809 337.279 326.709C334.749 327.659 332.179 328.389 329.429 328.949C326.759 329.499 323.989 329.879 321.219 330.069C319.919 330.159 318.619 330.199 317.329 330.199L317.339 330.219ZM258.659 216.819L258.679 216.949C259.499 221.609 260.339 226.429 260.799 231.279C261.239 236.439 261.259 241.659 261.249 246.559C261.239 247.689 261.229 248.819 261.219 249.949C261.189 253.809 261.169 257.799 260.959 261.789L260.739 266.709C260.599 269.729 260.479 273.219 260.709 276.519C261.409 285.719 264.549 294.869 269.799 302.969C272.409 306.999 275.409 310.609 278.719 313.689C280.419 315.289 282.199 316.769 284.029 318.069L289.809 321.999C294.589 324.489 299.759 326.409 305.129 327.689C310.259 328.879 315.649 329.309 321.149 328.939C323.869 328.749 326.579 328.379 329.199 327.839C331.929 327.289 334.359 326.599 336.869 325.649C339.239 324.769 341.629 323.659 344.179 322.269C345.349 321.619 346.539 320.919 347.709 320.189C348.849 319.479 349.799 318.819 350.909 317.979C352.739 316.569 354.659 314.859 356.969 312.569C358.059 311.499 358.889 310.629 359.759 309.659C360.619 308.699 361.459 307.679 362.249 306.629C365.369 302.449 367.939 297.629 369.669 292.699C370.509 290.289 371.239 287.679 371.829 284.939C372.379 282.379 372.729 279.739 372.879 277.109C373.029 274.519 372.999 271.829 372.779 269.109C372.659 267.679 372.519 266.359 372.329 265.079C372.279 264.629 372.189 264.209 372.079 263.769C372.029 263.549 371.979 263.329 371.929 263.099L371.709 262.119C371.639 261.899 371.609 261.609 371.579 261.269C371.529 260.799 371.519 260.359 371.549 259.919C371.599 258.839 371.929 257.619 372.429 256.659L372.689 256.189C373.329 255.179 374.099 254.379 375.109 253.699C375.489 253.449 375.899 253.219 376.309 253.039C376.619 252.899 376.889 252.769 377.119 252.719L378.079 252.419C378.289 252.349 378.509 252.279 378.729 252.209C379.159 252.079 379.569 251.949 379.959 251.779C381.179 251.289 382.399 250.749 383.699 250.129C386.159 248.949 388.509 247.629 390.669 246.199C392.869 244.749 394.969 243.119 396.919 241.349C398.899 239.549 400.839 237.549 402.529 235.579C405.929 231.609 408.799 226.969 410.849 222.169C411.349 220.979 411.809 219.739 412.219 218.499C412.639 217.229 412.959 216.029 413.319 214.629C414.129 211.489 414.639 208.959 414.929 206.669C415.099 205.269 415.179 204.149 415.219 202.799C415.269 201.409 415.269 200.039 415.239 198.699C415.159 195.879 414.899 193.189 414.479 190.699C414.049 188.079 413.409 185.549 412.539 182.969C411.689 180.409 410.659 177.879 409.459 175.449C407.059 170.569 403.999 166.119 400.339 162.219C396.539 158.229 392.269 154.719 387.659 151.809L381.419 148.819C379.379 147.899 377.219 147.099 374.979 146.429C370.629 145.119 366.009 144.339 361.249 144.109C351.619 143.639 342.139 145.499 333.839 149.509C333.719 149.569 333.589 149.649 333.459 149.719C333.319 149.799 333.189 149.879 333.049 149.949C329.459 151.789 325.999 154.029 322.329 156.399L321.229 157.109C317.869 159.299 314.419 161.339 311.079 163.309C310.129 163.869 309.179 164.429 308.229 164.999C304.009 167.469 299.499 170.059 294.809 172.279C290.369 174.339 285.759 176.039 281.299 177.679L281.239 177.699C282.729 181.209 283.479 184.899 283.479 188.679C283.479 192.149 282.849 195.559 281.589 198.809C283.149 199.359 284.909 199.939 286.689 200.269C289.309 200.759 292.099 200.739 294.799 200.719H295.589C295.589 200.719 295.599 200.719 295.609 200.719C296.929 200.719 297.619 201.209 297.919 202.369C298.289 203.799 298.649 205.239 299.019 206.669C299.619 209.029 300.219 211.389 300.839 213.739C300.909 213.999 300.939 214.249 300.939 214.469L302.349 215.169L300.559 215.349C300.329 215.539 300.029 215.689 299.659 215.789C297.299 216.439 294.939 217.109 292.589 217.779C291.179 218.179 289.779 218.579 288.369 218.979C287.219 219.299 286.439 218.949 285.769 217.789L285.399 217.139C284.049 214.789 282.659 212.349 280.909 210.319C279.719 208.939 278.319 207.689 277.039 206.609C272.429 212.239 265.779 215.929 258.639 216.819H258.659ZM193.009 330.149C191.689 330.149 190.369 330.099 189.049 330.009C186.289 329.809 183.529 329.429 180.849 328.869C178.109 328.309 175.549 327.569 173.019 326.609C170.609 325.709 168.099 324.559 165.569 323.189C164.399 322.549 163.199 321.839 161.979 321.079C160.809 320.359 159.859 319.699 158.699 318.819C156.829 317.389 154.859 315.639 152.519 313.329C151.469 312.289 150.579 311.399 149.669 310.379C148.789 309.399 147.939 308.349 147.129 307.279C143.939 303.009 141.309 298.079 139.549 293.039C138.679 290.539 137.919 287.809 137.339 285.149C136.779 282.529 136.419 279.829 136.269 277.139C136.119 274.499 136.149 271.749 136.379 268.979C136.499 267.509 136.649 266.169 136.839 264.869C136.889 264.389 136.999 263.919 137.109 263.459C137.159 263.249 137.209 263.039 137.249 262.829L137.489 261.749C137.509 261.629 137.559 261.359 137.579 261.119C137.619 260.729 137.629 260.329 137.609 259.939C137.579 259.469 137.509 258.999 137.389 258.549C137.329 258.309 137.249 258.069 137.159 257.829L137.089 257.659C137.019 257.489 136.959 257.349 136.709 256.889C136.449 256.459 136.349 256.339 136.229 256.179L136.119 256.039C135.969 255.849 135.799 255.659 135.619 255.489C135.289 255.159 134.929 254.869 134.529 254.609C134.199 254.389 133.869 254.209 133.499 254.039C133.279 253.939 133.019 253.839 132.909 253.799L131.869 253.469C131.649 253.399 131.449 253.329 131.239 253.269C130.789 253.129 130.319 252.989 129.869 252.779C128.659 252.289 127.389 251.729 126.109 251.119C123.589 249.919 121.199 248.569 118.999 247.109C116.749 245.629 114.599 243.959 112.619 242.159C110.509 240.229 108.589 238.259 106.899 236.289C103.429 232.229 100.489 227.489 98.399 222.579C97.879 221.349 97.409 220.089 96.999 218.819C96.589 217.559 96.249 216.379 95.869 214.879C95.039 211.689 94.519 209.119 94.209 206.779C94.029 205.359 93.939 204.169 93.899 202.799C93.849 201.399 93.839 199.999 93.869 198.639C93.949 195.679 94.1991 193.009 94.6391 190.459C95.0891 187.799 95.749 185.209 96.649 182.549C97.519 179.959 98.579 177.379 99.809 174.889C102.309 169.839 105.449 165.299 109.139 161.379C113.009 157.309 117.349 153.749 122.039 150.779L128.409 147.719C130.519 146.769 132.729 145.949 135.009 145.269C139.409 143.929 144.119 143.129 149.019 142.899C158.849 142.429 168.509 144.329 176.999 148.419C177.159 148.499 177.319 148.589 177.469 148.679C177.589 148.749 177.699 148.819 177.819 148.879C181.469 150.749 184.959 153.019 188.659 155.409L189.719 156.099C193.019 158.259 196.429 160.269 199.719 162.209C200.709 162.789 201.699 163.379 202.689 163.969C206.889 166.419 211.369 168.999 216.009 171.209C220.379 173.239 224.939 174.919 229.349 176.539L230.629 177.009L230.379 177.569C228.789 181.109 227.979 184.849 227.979 188.689C227.979 192.189 228.659 195.629 229.989 198.899L230.219 199.459L229.649 199.659C227.919 200.279 225.899 200.979 223.819 201.359C221.089 201.869 218.239 201.849 215.479 201.829H214.699C214.699 201.829 214.689 201.829 214.679 201.829C213.789 201.829 213.629 202.069 213.489 202.609C213.129 204.019 212.769 205.419 212.409 206.829C211.799 209.219 211.199 211.609 210.569 213.989C210.519 214.179 210.499 214.329 210.509 214.449C210.609 214.519 210.749 214.579 210.939 214.629C213.299 215.269 215.649 215.949 217.999 216.619C219.409 217.019 220.829 217.429 222.239 217.819C222.779 217.969 223.069 217.959 223.519 217.169L223.909 216.499C225.279 214.109 226.699 211.629 228.519 209.519C229.899 207.909 231.529 206.509 232.949 205.319L233.409 204.939L233.779 205.409C238.339 211.239 245.129 215.009 252.399 215.749L253.019 215.809L252.799 217.069C251.979 221.729 251.129 226.559 250.679 231.389C250.249 236.519 250.219 241.689 250.229 246.549L250.249 249.809C250.279 253.689 250.299 257.709 250.509 261.709C250.569 262.909 250.619 264.089 250.669 265.269L250.729 266.659C250.869 269.709 250.989 273.239 250.759 276.579C250.039 285.969 246.829 295.289 241.479 303.549C238.839 307.629 235.779 311.299 232.389 314.479C230.659 316.109 228.829 317.619 226.959 318.949L221.159 322.889C216.189 325.479 210.919 327.439 205.459 328.749C201.409 329.689 197.249 330.159 193.059 330.159L193.009 330.149ZM138.579 262.079L138.359 263.069C138.319 263.279 138.269 263.499 138.209 263.719C138.109 264.159 138.009 264.589 137.969 265.009C137.779 266.309 137.639 267.629 137.519 269.069C137.299 271.789 137.269 274.479 137.419 277.069C137.569 279.709 137.919 282.339 138.469 284.909C139.029 287.529 139.779 290.209 140.639 292.659C142.369 297.589 144.929 302.409 148.049 306.589C148.839 307.639 149.679 308.659 150.529 309.619C151.419 310.619 152.289 311.499 153.319 312.519C155.629 314.799 157.559 316.509 159.389 317.909C160.519 318.759 161.449 319.399 162.579 320.099C163.779 320.849 164.969 321.549 166.109 322.169C168.579 323.519 171.039 324.649 173.409 325.529C175.919 326.479 178.349 327.179 181.069 327.739C183.699 328.289 186.409 328.669 189.119 328.859C194.539 329.239 199.929 328.819 205.139 327.619C210.509 326.339 215.679 324.409 220.509 321.899L226.239 317.999C228.059 316.699 229.849 315.229 231.539 313.629C234.869 310.519 237.869 306.909 240.449 302.919C245.699 294.819 248.849 285.679 249.549 276.489C249.779 273.219 249.659 269.729 249.519 266.709L249.459 265.319C249.409 264.139 249.359 262.959 249.299 261.769C249.089 257.739 249.059 253.709 249.039 249.819L249.019 246.559C249.009 241.669 249.039 236.469 249.469 231.289C249.919 226.399 250.779 221.559 251.599 216.869V216.829C244.449 215.929 237.799 212.229 233.189 206.589C231.919 207.669 230.529 208.899 229.349 210.279C227.609 212.309 226.219 214.729 224.869 217.079L224.479 217.749C223.819 218.909 223.039 219.259 221.889 218.939C220.469 218.539 219.059 218.139 217.639 217.729C215.289 217.059 212.949 216.389 210.589 215.749C210.229 215.649 209.939 215.509 209.709 215.329H207.929L209.309 214.469C209.309 214.239 209.329 213.979 209.409 213.699C210.039 211.319 210.649 208.939 211.249 206.559C211.609 205.149 211.969 203.739 212.329 202.339C212.629 201.179 213.289 200.679 214.659 200.689H215.449C218.149 200.709 220.939 200.729 223.569 200.239C225.349 199.909 227.099 199.339 228.659 198.789C227.419 195.549 226.789 192.159 226.789 188.709C226.789 184.909 227.549 181.209 229.049 177.679L228.929 177.639C224.489 176.009 219.899 174.319 215.479 172.259C210.799 170.039 206.279 167.439 202.059 164.969C201.069 164.379 200.079 163.799 199.089 163.209C195.789 161.259 192.369 159.239 189.049 157.069L187.989 156.379C184.319 153.999 180.849 151.749 177.249 149.909C177.109 149.839 176.979 149.759 176.839 149.679C176.709 149.599 176.579 149.529 176.449 149.459C168.149 145.449 158.669 143.579 149.039 144.049C144.239 144.279 139.619 145.059 135.309 146.379C133.079 147.039 130.909 147.849 128.859 148.769L122.559 151.789C118.009 154.669 113.739 158.179 109.939 162.169C106.329 165.999 103.259 170.449 100.809 175.399C99.609 177.839 98.569 180.369 97.709 182.919C96.819 185.519 96.179 188.049 95.739 190.649C95.309 193.139 95.069 195.759 94.989 198.659C94.959 199.989 94.9689 201.369 95.0189 202.749C95.0589 204.099 95.149 205.229 95.319 206.629C95.619 208.909 96.129 211.439 96.949 214.579C97.329 216.059 97.659 217.219 98.059 218.449C98.469 219.689 98.929 220.929 99.429 222.119C101.469 226.919 104.349 231.559 107.739 235.529C109.399 237.469 111.289 239.409 113.359 241.299C115.299 243.059 117.399 244.689 119.599 246.139C121.759 247.569 124.099 248.889 126.569 250.069C127.829 250.669 129.069 251.219 130.279 251.709C130.689 251.899 131.099 252.019 131.539 252.159C131.759 252.229 131.979 252.289 132.189 252.369L133.129 252.669C133.359 252.719 133.619 252.839 133.939 252.989C134.359 253.179 134.749 253.399 135.129 253.639C135.589 253.939 136.019 254.289 136.399 254.669C136.609 254.879 136.799 255.099 136.989 255.329L137.099 255.469C137.239 255.649 137.349 255.789 137.669 256.309C137.979 256.869 138.039 257.029 138.119 257.229L138.189 257.389C138.299 257.679 138.389 257.969 138.469 258.249C138.609 258.769 138.689 259.319 138.729 259.869C138.759 260.319 138.749 260.779 138.699 261.239C138.669 261.569 138.639 261.859 138.569 262.079H138.579ZM255.139 210.799C242.949 210.799 233.039 200.879 233.039 188.699C233.039 176.519 242.959 166.589 255.139 166.589C267.319 166.589 277.249 176.509 277.249 188.699C277.249 200.889 267.329 210.799 255.139 210.799ZM255.139 167.739C243.589 167.739 234.189 177.139 234.189 188.689C234.189 200.239 243.589 209.639 255.139 209.639C266.689 209.639 276.089 200.239 276.089 188.689C276.089 177.139 266.689 167.739 255.139 167.739ZM232.759 173.299L231.829 172.519C228.189 169.469 224.419 166.319 220.429 163.519C216.199 160.599 211.729 157.999 207.519 155.589C206.569 155.049 205.609 154.509 204.659 153.969C201.289 152.059 197.809 150.089 194.239 148.279L192.649 147.459C188.869 145.529 184.969 143.529 181.539 141.249L181.439 141.189C181.369 141.149 181.309 141.119 181.249 141.079C173.479 135.769 167.009 128.339 162.529 119.589C160.309 115.269 158.659 110.789 157.599 106.269C157.049 103.949 156.659 101.619 156.429 99.3389L155.909 92.3492C156.139 86.7392 157.069 81.1991 158.659 75.8291C160.249 70.6091 162.619 65.6291 165.719 61.0191C167.269 58.7191 168.979 56.5191 170.799 54.479C172.649 52.389 174.559 50.5289 176.659 48.8189C178.649 47.1689 180.899 45.5789 183.339 44.0689C184.489 43.3689 185.709 42.6788 186.959 42.0088C188.169 41.3588 189.209 40.8591 190.549 40.2891C192.739 39.3791 195.229 38.539 198.389 37.669C199.809 37.269 201.029 36.9492 202.369 36.6792C203.659 36.4092 204.999 36.1891 206.329 36.0191C211.629 35.3791 217.199 35.5689 222.449 36.5489C225.049 37.0389 227.799 37.7389 230.389 38.5689C232.949 39.3989 235.459 40.4292 237.869 41.6392C240.229 42.8192 242.589 44.2189 244.889 45.7989C246.099 46.6289 247.189 47.4291 248.219 48.2491C248.609 48.5291 248.959 48.8592 249.309 49.1792C249.469 49.3292 249.629 49.4792 249.789 49.6192L250.609 50.3692C250.699 50.4492 250.909 50.6188 251.109 50.7588C251.429 50.9888 251.769 51.1992 252.119 51.3692C252.549 51.5792 252.989 51.7492 253.429 51.8692C253.669 51.9392 253.919 51.9889 254.169 52.0289L254.339 52.0489C254.529 52.0789 254.679 52.0989 255.209 52.1089C255.709 52.0989 255.859 52.0789 256.049 52.0489L256.229 52.0191C256.469 51.9791 256.719 51.9289 256.949 51.8589C257.399 51.7389 257.839 51.5689 258.259 51.3589C258.609 51.1789 258.949 50.9791 259.259 50.7491C259.459 50.6091 259.659 50.4389 259.759 50.3589L260.579 49.6192C260.749 49.4692 260.909 49.319 261.069 49.169C261.409 48.849 261.769 48.5193 262.179 48.2193C263.189 47.4193 264.279 46.6191 265.489 45.7891C267.789 44.2091 270.149 42.809 272.509 41.629C274.919 40.419 277.429 39.3889 279.989 38.5689C282.709 37.6989 285.379 37.0191 287.929 36.5391C293.179 35.5491 298.749 35.3688 304.049 36.0088C305.389 36.1788 306.719 36.399 308.009 36.669C309.299 36.939 310.489 37.239 311.989 37.649C315.149 38.519 317.649 39.3391 319.829 40.2491C321.159 40.8091 322.239 41.3193 323.439 41.9693C324.679 42.6293 325.899 43.3191 327.059 44.0191C329.589 45.5691 331.779 47.1188 333.759 48.7588C335.839 50.4688 337.759 52.329 339.609 54.439C341.419 56.479 343.129 58.6891 344.669 60.9991C347.789 65.6791 350.169 70.6689 351.729 75.8189C353.319 81.2089 354.249 86.7391 354.479 92.2891L353.949 99.3492C353.719 101.649 353.329 103.989 352.779 106.299C351.739 110.779 350.079 115.269 347.849 119.629C343.359 128.379 336.879 135.819 329.089 141.129C329.019 141.179 328.939 141.219 328.869 141.259L328.739 141.339C325.319 143.599 321.439 145.579 317.689 147.499L316.089 148.319C312.569 150.109 309.129 152.059 305.799 153.939C304.799 154.509 303.799 155.069 302.789 155.639C298.569 158.059 294.089 160.659 289.869 163.589C285.929 166.369 282.199 169.479 278.589 172.499L278.219 172.809V172.919L277.449 173.259L277.179 172.879C272.869 166.879 266.229 162.849 258.959 161.809L258.369 161.729L258.469 161.139C258.869 158.919 259.259 157.079 259.889 155.289C260.809 152.669 262.239 150.219 263.629 147.849L264.029 147.159C264.489 146.369 264.359 146.109 263.959 145.719C262.909 144.699 261.869 143.679 260.819 142.659C259.059 140.949 257.299 139.239 255.559 137.509C255.419 137.369 255.299 137.279 255.189 137.229C255.079 137.279 254.949 137.379 254.819 137.509C253.099 139.209 251.369 140.899 249.639 142.579C248.569 143.619 247.489 144.669 246.419 145.709C246.019 146.099 245.889 146.359 246.349 147.149L246.749 147.829C248.139 150.209 249.569 152.659 250.489 155.279C251.119 157.069 251.509 158.899 251.899 161.099L252.009 161.689L251.409 161.769C244.109 162.769 237.429 166.789 233.089 172.789L232.729 173.289L232.759 173.299ZM259.749 160.749C266.899 161.929 273.409 165.879 277.789 171.699L277.899 171.609C281.529 168.579 285.279 165.449 289.249 162.639C293.509 159.689 298.009 157.069 302.259 154.629C303.269 154.059 304.269 153.499 305.269 152.929C308.609 151.039 312.059 149.079 315.599 147.289L317.199 146.469C321.099 144.479 324.779 142.589 328.139 140.369C328.209 140.329 328.269 140.289 328.339 140.249C328.389 140.219 328.439 140.199 328.479 140.169C336.099 134.969 342.459 127.679 346.859 119.099C349.049 114.819 350.679 110.429 351.699 106.029C352.239 103.769 352.619 101.479 352.849 99.2393L353.369 92.2691C353.139 86.8891 352.229 81.439 350.659 76.149C349.129 71.109 346.809 66.2192 343.749 61.6392C342.239 59.3792 340.559 57.209 338.779 55.209C336.939 53.109 335.119 51.349 333.059 49.649C331.119 48.039 328.969 46.5191 326.489 44.9991C325.349 44.3091 324.149 43.629 322.929 42.979C321.749 42.3391 320.729 41.8591 319.419 41.3091C317.279 40.4191 314.829 39.6088 311.709 38.7588C310.229 38.3488 309.059 38.0591 307.799 37.7891C306.539 37.5191 305.239 37.309 303.929 37.149C298.749 36.529 293.289 36.709 288.159 37.669C285.649 38.139 283.029 38.8092 280.359 39.6592C277.859 40.4692 275.399 41.4692 273.049 42.6592C270.739 43.8192 268.419 45.1893 266.169 46.7393C264.979 47.5593 263.909 48.3392 262.899 49.1392C262.529 49.3992 262.219 49.6988 261.889 50.0088C261.719 50.1688 261.549 50.3193 261.379 50.4693L260.649 51.129C260.499 51.299 260.249 51.4792 259.959 51.6792C259.599 51.9392 259.209 52.179 258.799 52.379C258.309 52.629 257.789 52.8193 257.269 52.9693C256.989 53.0493 256.699 53.1092 256.399 53.1592L256.219 53.1792C255.999 53.2092 255.829 53.2391 255.209 53.2491C254.569 53.2391 254.389 53.2092 254.169 53.1792L254.009 53.1592C253.699 53.1092 253.409 53.0493 253.129 52.9693C252.609 52.8293 252.099 52.629 251.599 52.379C251.189 52.179 250.799 51.939 250.439 51.669C250.169 51.479 249.929 51.3092 249.779 51.1392L249.029 50.4493C248.869 50.3093 248.699 50.1493 248.529 49.9893C248.199 49.6793 247.879 49.3892 247.539 49.1392C246.509 48.3292 245.439 47.5393 244.249 46.7193C241.999 45.1693 239.689 43.7992 237.369 42.6392C235.019 41.4592 232.559 40.4492 230.049 39.6392C227.499 38.8192 224.799 38.139 222.249 37.649C217.109 36.689 211.659 36.509 206.479 37.129C205.179 37.289 203.879 37.5091 202.619 37.7691C201.319 38.0391 200.119 38.3591 198.719 38.7491C195.609 39.6091 193.159 40.4289 191.019 41.3189C189.719 41.8689 188.699 42.3591 187.519 42.9991C186.289 43.6591 185.089 44.3389 183.959 45.0289C181.559 46.4989 179.359 48.0692 177.409 49.6792C175.359 51.3592 173.479 53.1693 171.679 55.2193C169.889 57.2193 168.219 59.3792 166.699 61.6392C163.659 66.1492 161.339 71.0292 159.779 76.1392C158.219 81.4192 157.309 86.8589 157.069 92.3189L157.589 99.2193C157.809 101.439 158.189 103.719 158.729 105.989C159.759 110.419 161.379 114.809 163.559 119.049C167.949 127.629 174.289 134.919 181.899 140.109L181.999 140.169C182.059 140.199 182.119 140.239 182.179 140.269C185.559 142.509 189.259 144.409 193.169 146.409L194.759 147.229C198.339 149.049 201.839 151.029 205.219 152.939C206.169 153.479 207.119 154.019 208.079 154.559C212.319 156.989 216.809 159.599 221.079 162.549C225.099 165.379 228.879 168.539 232.539 171.599C236.949 165.779 243.499 161.839 250.679 160.699C250.329 158.809 249.969 157.199 249.419 155.639C248.529 153.119 247.129 150.709 245.769 148.379L245.369 147.689C244.699 146.529 244.779 145.679 245.629 144.849C246.699 143.799 247.769 142.759 248.849 141.709C250.579 140.029 252.309 138.349 254.029 136.649C254.229 136.449 254.429 136.299 254.639 136.189V134.409L255.609 136.099C255.879 136.209 256.139 136.389 256.409 136.649C258.149 138.369 259.899 140.079 261.659 141.789C262.709 142.809 263.759 143.829 264.809 144.849C265.659 145.689 265.739 146.539 265.069 147.689L264.659 148.389C263.299 150.719 261.899 153.119 261.009 155.639C260.459 157.199 260.099 158.819 259.739 160.729L259.749 160.749Z" fill="url(#paint0_linear_3_2685)"/>
</g>
<defs>
<linearGradient id="paint0_linear_3_2685" x1="82.339" y1="182.159" x2="427.979" y2="182.159" gradientUnits="userSpaceOnUse">
<stop stop-color="#FCB912"/>
<stop offset="1" stop-color="#F7991C"/>
</linearGradient>
</defs>
</svg>
