<svg width="33" height="33" viewBox="0 0 33 33" fill="none" xmlns="http://www.w3.org/2000/svg">
<path d="M16.2112 0.879883C7.37118 0.879883 0.201172 8.05014 0.201172 16.8901C0.201172 25.7301 7.37118 32.8999 16.2112 32.8999C25.0512 32.8999 32.2212 25.7301 32.2212 16.8901C32.2212 8.05014 25.0512 0.879883 16.2112 0.879883ZM11.5612 25.0801H7.66119V13.3501H11.5612V25.0801ZM9.61121 11.75H9.58118C8.27118 11.75 7.43115 10.8502 7.43115 9.72021C7.43115 8.59021 8.30117 7.68994 9.64117 7.68994C10.9812 7.68994 11.7912 8.57021 11.8212 9.72021C11.8212 10.8502 10.9712 11.75 9.61121 11.75ZM25.6112 25.0801H21.7112V18.8101C21.7112 17.2301 21.1511 16.1602 19.7411 16.1602C18.6611 16.1602 18.0212 16.8898 17.7411 17.5898C17.6411 17.8398 17.6112 18.19 17.6112 18.54V25.0898H13.7112C13.7112 25.0898 13.7612 14.4599 13.7112 13.3599H17.6112V15.02C18.1312 14.22 19.0512 13.0801 21.1212 13.0801C23.6812 13.0801 25.6112 14.7599 25.6112 18.3599V25.0801Z" fill="white"/>
</svg>
