<svg width="33" height="33" viewBox="0 0 33 33" fill="none" xmlns="http://www.w3.org/2000/svg">
<path d="M16.0803 0C7.24032 0 0.0703125 7.16977 0.0703125 16.0098C0.0703125 24.8498 7.24032 32.02 16.0803 32.02C24.9203 32.02 32.0903 24.8498 32.0903 16.0098C32.0903 7.16977 24.9203 0 16.0803 0ZM25.7603 11.7402C25.7603 11.9302 25.7703 12.1201 25.7703 12.3101C25.7703 19.1501 20.5704 26.2202 11.8604 26.2202C9.20035 26.2202 6.6103 25.46 4.3703 24.02C4.3203 23.99 4.30031 23.9299 4.32031 23.8799C4.34031 23.8299 4.39032 23.7998 4.45032 23.7998C4.83032 23.8398 5.21033 23.8701 5.59033 23.8701C7.66033 23.8701 9.62033 23.23 11.2803 22.02C9.29033 21.85 7.58034 20.5098 6.97034 18.5898C6.96034 18.5498 6.9703 18.51 6.9903 18.48C7.0203 18.45 7.06034 18.4299 7.10034 18.4399C7.65034 18.5399 8.21031 18.55 8.75031 18.46C6.7003 17.82 5.26031 15.9002 5.26031 13.7202V13.6602C5.26031 13.6602 5.28031 13.5801 5.32031 13.5601C5.36031 13.5401 5.40031 13.5401 5.44031 13.5601C5.97031 13.8601 6.57035 14.0501 7.17035 14.1201C5.99035 13.1801 5.30029 11.7602 5.30029 10.2402C5.30029 9.36023 5.53034 8.50023 5.97034 7.74023C5.99034 7.71023 6.0203 7.68018 6.0603 7.68018C6.1003 7.68018 6.14034 7.69021 6.16034 7.72021C8.57034 10.6802 12.1203 12.5 15.9103 12.73C15.8503 12.41 15.8103 12.08 15.8103 11.75C15.8103 9.01 18.0403 6.77979 20.7803 6.77979C22.1303 6.77979 23.4304 7.3298 24.3604 8.2998C25.4104 8.0898 26.4103 7.6999 27.3403 7.1499C27.3803 7.1199 27.4403 7.1299 27.4703 7.1499C27.5103 7.1799 27.5203 7.22978 27.5103 7.27979C27.2003 8.25978 26.5903 9.11998 25.7603 9.72998C26.5303 9.59998 27.2803 9.3698 28.0003 9.0498C28.0503 9.0298 28.1003 9.05008 28.1403 9.08008C28.1703 9.12008 28.1803 9.18021 28.1403 9.22021C27.4903 10.1902 26.6803 11.0302 25.7403 11.7202L25.7603 11.7402Z" fill="white"/>
</svg>
