<svg width="52" height="52" viewBox="0 0 52 52" fill="none" xmlns="http://www.w3.org/2000/svg">
<path d="M25.5898 51.9609C11.5298 51.9609 0.0898438 40.5209 0.0898438 26.4609C0.0898438 12.4009 11.5298 0.960938 25.5898 0.960938C39.6498 0.960938 51.0898 12.4009 51.0898 26.4609C51.0898 40.5209 39.6498 51.9609 25.5898 51.9609ZM25.5898 1.96094C12.0798 1.96094 1.08984 12.9509 1.08984 26.4609C1.08984 39.9709 12.0798 50.9609 25.5898 50.9609C39.0998 50.9609 50.0898 39.9709 50.0898 26.4609C50.0898 12.9509 39.0998 1.96094 25.5898 1.96094Z" fill="#F7991C"/>
<path d="M12.4203 26.2515C12.3703 26.3815 12.3703 26.5314 12.4203 26.6714C12.4503 26.7414 12.4903 26.8014 12.5403 26.8514L20.7002 35.0115C20.9102 35.2215 21.2602 35.2215 21.4702 35.0115C21.6802 34.8015 21.6802 34.4515 21.4702 34.2415L14.2403 27.0115H38.2603C38.5603 27.0115 38.8003 26.7714 38.8003 26.4714C38.8003 26.1714 38.5603 25.9315 38.2603 25.9315H14.2403L21.4702 18.7015C21.6802 18.4915 21.6802 18.1415 21.4702 17.9315C21.3602 17.8215 21.2202 17.7715 21.0902 17.7715C20.9602 17.7715 20.8102 17.8215 20.7102 17.9315L12.5503 26.0915C12.5003 26.1415 12.4603 26.2015 12.4303 26.2715L12.4203 26.2515Z" fill="#F7991C"/>
</svg>
