<svg width="101" height="71" viewBox="0 0 101 71" fill="none" xmlns="http://www.w3.org/2000/svg">
<path d="M0.730469 39.3491C0.730469 36.4791 0.730469 33.6091 0.730469 30.7391C0.800469 29.9691 0.860542 29.1992 0.930542 28.4292C1.39054 23.3992 1.77045 18.3691 2.34045 13.3491C2.76045 9.60909 4.45049 6.47913 7.50049 4.13913C9.91049 2.28913 12.7305 1.62906 15.6405 1.43906C22.9605 0.959057 30.2805 0.379145 37.6105 0.279145C48.7905 0.129145 59.9805 0.229106 71.1605 0.489106C76.8205 0.619106 82.4805 1.19907 88.1105 1.82907C93.7205 2.44907 97.7005 6.20908 99.0105 11.7091C100.21 16.7491 100.61 21.8892 100.69 27.0392C100.79 33.4892 100.74 39.9491 100.48 46.3991C100.32 50.2591 99.8205 54.1291 99.1205 57.9391C98.0505 63.7291 94.5105 67.4391 88.6405 68.3191C83.8505 69.0391 78.9905 69.4591 74.1405 69.6191C64.8905 69.9291 55.6205 70.0891 46.3605 70.0691C35.6005 70.0491 24.8405 69.8591 14.1405 68.5091C7.9705 67.7291 3.70043 64.0191 2.57043 57.9091C1.86043 54.0392 1.56052 50.0992 1.16052 46.1792C0.930522 43.9192 0.870469 41.6391 0.730469 39.3691V39.3491ZM67.0005 35.0891C58.2305 30.0391 49.6005 25.0692 40.8705 20.0392V50.1391C49.6005 45.1091 58.2205 40.1491 67.0005 35.0891Z" fill="#FF0302"/>
<path d="M40.8711 20.0391V50.139L67.0011 35.089L40.8711 20.0391Z" fill="white"/>
</svg>
